<?xml version="1.0" encoding="utf-8"?>
<!-- Generator: Adobe Illustrator 21.1.0, SVG Export Plug-In . SVG Version: 6.00 Build 0)  -->
<svg version="1.1" id="Capa_1" xmlns="http://www.w3.org/2000/svg" xmlns:xlink="http://www.w3.org/1999/xlink" x="0px" y="0px"
	 viewBox="0 0 455.7 455.7" style="enable-background:new 0 0 455.7 455.7;" xml:space="preserve">
<style type="text/css">
	.st0{fill:#004B8D;}
	.st1{fill:#FFFFFF;}
</style>
<g>
	<rect class="st0" width="455.7" height="455.7"/>
	<g>
		<path class="st1" d="M107.3,69.2c20.9,0,38.1,17.3,38,38.2c-0.1,22-18.3,38.5-38.3,38c-20.3,0.4-38.2-16.6-38.2-38.2
			C68.8,86.3,86.1,69.2,107.3,69.2z"/>
		<path class="st1" d="M129.4,386.5H84.7c-5.8,0-10.5-4.7-10.5-10.5V185.2c0-5.8,4.7-10.5,10.5-10.5h44.7c5.8,0,10.5,4.7,10.5,10.5
			V376C139.9,381.8,135.2,386.5,129.4,386.5z"/>
		<path class="st1" d="M386.9,241.7c0-40-32.4-72.4-72.4-72.4H303c-21.9,0-41.2,10.9-52.8,27.6c-1.3,1.8-2.4,3.7-3.5,5.7
			c-0.4-0.1-0.6-0.1-0.6-0.1V179c0-2.4-2-4.4-4.4-4.4h-55.8c-2.4,0-4.4,2-4.4,4.4v203.1c0,2.4,2,4.4,4.4,4.4l57,0
			c2.4,0,4.4-2,4.4-4.4V264.8c0-20.3,16.2-37.1,36.5-37.3c10.4-0.1,19.7,4,26.5,10.8c6.7,6.7,10.8,15.9,10.8,26.1v117.8
			c0,2.4,2,4.4,4.4,4.4l57.2,0c2.4,0,4.4-2,4.4-4.4L386.9,241.7L386.9,241.7z"/>
	</g>
</g>
</svg>
