<?xml version="1.0" encoding="utf-8"?>
<!-- Generator: Adobe Illustrator 21.1.0, SVG Export Plug-In . SVG Version: 6.00 Build 0)  -->
<svg version="1.1" id="Layer_1" xmlns="http://www.w3.org/2000/svg" xmlns:xlink="http://www.w3.org/1999/xlink" x="0px" y="0px"
	 viewBox="0 0 134.4 190.3" style="enable-background:new 0 0 134.4 190.3;" xml:space="preserve">
<style type="text/css">
	.st0{fill:#BF3028;}
	.st1{fill:#E2564E;}
	.st2{fill:#FF8B85;}
	.st3{fill:#CECFC8;}
	.st4{fill:#F1F2EA;}
	.st5{fill:#FFFFFF;}
</style>
<g>
	<path class="st0" d="M134.4,73.3c0,37.1-67.2,91.3-67.2,91.3S0,110.4,0,73.3C0,36.2,30.1,6.1,67.2,6.1
		C104.3,6.1,134.4,36.2,134.4,73.3z"/>
	<path class="st1" d="M134.4,68.2c0,37.1-67.2,91.3-67.2,91.3S0,105.3,0,68.2C0,31.1,30.1,1,67.2,1C104.3,1,134.4,31.1,134.4,68.2z"
		/>
	<g>
		<path class="st2" d="M0,68.2c0,0,0-0.8,0-2.4c0-0.8,0-1.7,0.1-2.8c0-0.6,0.1-1.2,0.1-1.8c0.1-0.6,0.1-1.3,0.2-2
			c0.3-2.9,0.9-6.4,2-10.2c1.1-3.9,2.7-8.2,5-12.6c2.3-4.4,5.3-8.9,9.1-13.3c1.9-2.1,3.9-4.3,6.2-6.2c2.2-2,4.7-3.9,7.3-5.6
			C35.3,7.7,41.2,4.9,47.5,3c3.1-1,6.4-1.7,9.7-2.2c3.3-0.5,6.6-0.7,10-0.8c3.3,0,6.7,0.3,10,0.8C80.5,1.3,83.7,2,86.9,3
			c6.3,1.9,12.2,4.7,17.4,8.2c2.6,1.7,5.1,3.6,7.3,5.6c2.3,2,4.3,4.1,6.2,6.2c3.8,4.3,6.8,8.8,9.1,13.3c2.3,4.4,3.9,8.7,5,12.6
			c1.1,3.9,1.7,7.4,2,10.2c0.1,0.7,0.2,1.4,0.2,2c0.1,0.6,0.1,1.2,0.1,1.8c0.1,1.1,0.1,2.1,0.1,2.8c0,1.5,0,2.4,0,2.4s0-0.8-0.1-2.4
			c0-0.8-0.1-1.7-0.2-2.8c-0.1-0.6-0.1-1.2-0.2-1.8c-0.1-0.6-0.2-1.3-0.3-2c-0.4-2.8-1.1-6.3-2.3-10.1c-1.2-3.8-2.9-8-5.3-12.3
			c-2.3-4.3-5.4-8.7-9.2-12.8c-1.9-2.1-3.9-4.1-6.2-6c-1.1-1-2.3-1.9-3.5-2.8c-0.6-0.5-1.2-0.9-1.8-1.3c-0.6-0.4-1.2-0.9-1.9-1.3
			c-5.1-3.3-10.9-6-17-7.9c-3.1-0.9-6.2-1.6-9.4-2.1C73.7,2.2,70.5,2,67.2,2c-3.3,0-6.5,0.2-9.7,0.7c-3.2,0.5-6.4,1.1-9.4,2.1
			c-6.1,1.8-11.9,4.5-17,7.9c-0.7,0.4-1.3,0.8-1.9,1.3c-0.6,0.4-1.2,0.9-1.8,1.3c-1.2,0.9-2.4,1.8-3.5,2.8c-2.3,1.9-4.3,3.9-6.2,6
			c-3.8,4.2-6.8,8.5-9.2,12.8c-2.3,4.3-4.1,8.5-5.3,12.3c-1.2,3.8-1.9,7.2-2.3,10.1c-0.1,0.7-0.2,1.4-0.3,2
			c-0.1,0.6-0.1,1.2-0.2,1.8c-0.1,1.1-0.2,2.1-0.2,2.8C0,67.4,0,68.2,0,68.2z"/>
	</g>
	<ellipse class="st3" cx="67.2" cy="184.4" rx="48" ry="5.9"/>
	<path class="st0" d="M115.1,66.4c0,26.4-21.4,54.2-47.9,54.2c-26.4,0-47.9-27.8-47.9-54.2c0-26.4,21.4-41.5,47.9-41.5
		C93.6,24.9,115.1,40,115.1,66.4z"/>
	<circle class="st4" cx="67.2" cy="64.5" r="47.9"/>
	<g>
		<path class="st5" d="M19.3,64.5c0,0,0-0.6,0-1.7c0-0.6,0-1.2,0-2c0-0.4,0-0.8,0-1.3c0.1-0.5,0.1-0.9,0.2-1.5
			c0.1-1,0.3-2.2,0.5-3.4c0.3-1.2,0.6-2.5,0.9-3.9c0.4-1.4,0.9-2.8,1.4-4.4c0.2-0.8,0.6-1.5,1-2.3c0.4-0.8,0.7-1.6,1.1-2.4
			c0.4-0.8,0.9-1.6,1.4-2.4c0.5-0.8,0.9-1.6,1.5-2.4c1.2-1.5,2.2-3.2,3.6-4.7c2.6-3.2,6-6,9.7-8.5c1-0.6,1.9-1.2,2.9-1.8
			c1-0.6,2-1,3.1-1.6l1.6-0.8l1.6-0.6c1.1-0.4,2.2-0.9,3.3-1.2c4.5-1.4,9.3-2,14.1-2.2l3.6,0.2c0.6,0,1.2,0,1.8,0.1l1.8,0.3l1.8,0.3
			l0.9,0.1l0.9,0.2c1.1,0.3,2.3,0.6,3.4,0.9c1.1,0.3,2.2,0.8,3.3,1.2l1.6,0.6l1.6,0.8c1,0.5,2.1,1,3.1,1.6c1,0.6,1.9,1.2,2.9,1.8
			c3.7,2.5,7,5.3,9.7,8.5c1.4,1.5,2.5,3.2,3.6,4.7c0.6,0.8,1,1.6,1.5,2.4c0.5,0.8,1,1.6,1.4,2.4c0.4,0.8,0.7,1.6,1.1,2.4
			c0.3,0.8,0.8,1.5,1,2.3c0.5,1.5,1.1,3,1.4,4.4c0.3,1.4,0.6,2.7,0.9,3.9c0.2,1.2,0.3,2.4,0.5,3.4c0.1,0.5,0.1,1,0.2,1.5
			c0,0.5,0,0.9,0,1.3c0,0.8,0,1.5,0,2c0,1.1,0,1.7,0,1.7s0-0.6-0.1-1.7c0-0.5-0.1-1.2-0.2-2c0-0.4-0.1-0.8-0.1-1.3
			c-0.1-0.4-0.2-0.9-0.3-1.4c-0.2-1-0.4-2.1-0.6-3.3c-0.3-1.2-0.7-2.5-1.1-3.8c-0.4-1.4-1-2.7-1.6-4.2c-0.6-1.5-1.4-2.9-2.2-4.5
			c-0.4-0.8-0.9-1.5-1.4-2.3c-0.5-0.8-0.9-1.6-1.5-2.3c-1.2-1.5-2.3-3.1-3.7-4.5c-2.6-3-6-5.6-9.5-8C91.9,24.6,91,24,90,23.4
			c-0.9-0.6-2-1-3-1.5l-1.5-0.7L84,20.7c-1.1-0.4-2.1-0.8-3.2-1.1c-1.1-0.3-2.2-0.6-3.3-0.8l-0.8-0.2l-0.8-0.1l-1.7-0.2l-1.7-0.3
			c-0.6-0.1-1.2-0.1-1.7-0.1l-3.5-0.2c-4.6,0.1-9.2,0.7-13.6,1.9c-1.1,0.3-2.1,0.7-3.2,1.1l-1.6,0.6L47.4,22c-1,0.5-2,0.9-3,1.5
			c-0.9,0.6-1.9,1.1-2.8,1.7c-3.6,2.4-6.9,5-9.5,8c-1.4,1.4-2.5,3-3.7,4.5c-0.6,0.7-1,1.6-1.5,2.3c-0.5,0.8-1,1.5-1.4,2.3
			c-0.8,1.6-1.6,3-2.2,4.5c-0.6,1.5-1.2,2.9-1.6,4.2c-0.4,1.4-0.7,2.7-1.1,3.8c-0.2,1.2-0.4,2.3-0.6,3.3c-0.1,0.5-0.2,1-0.3,1.4
			c-0.1,0.5-0.1,0.9-0.1,1.3c-0.1,0.8-0.1,1.5-0.2,2C19.4,63.9,19.3,64.5,19.3,64.5z"/>
	</g>
	<path class="st3" d="M67.2,106.6c-25.5,0-46.3-19.9-47.8-45c-0.1,1-0.1,1.9-0.1,2.9c0,26.4,21.4,47.9,47.9,47.9
		c26.4,0,47.9-21.4,47.9-47.9c0-1,0-1.9-0.1-2.9C113.5,86.7,92.7,106.6,67.2,106.6z"/>
</g>
</svg>
