<?xml version="1.0" encoding="utf-8"?>
<!-- Generator: Adobe Illustrator 21.1.0, SVG Export Plug-In . SVG Version: 6.00 Build 0)  -->
<svg version="1.1" id="Capa_1" xmlns="http://www.w3.org/2000/svg" xmlns:xlink="http://www.w3.org/1999/xlink" x="0px" y="0px"
	 viewBox="0 0 612 612" style="enable-background:new 0 0 612 612;" xml:space="preserve">
<style type="text/css">
	.st0{fill:#6a83b5;}
</style>
<g>
	<g>
		<path class="st0" d="M65.6,612C29.4,612,0,582.6,0,546.4c0-19.8,8.8-38.4,24.2-50.9l140.1-129.4c-22.8-37.6-34.8-80.6-34.8-124.9
			C129.5,108.2,237.7,0,370.7,0C503.8,0,612,108.2,612,241.3c0,133-108.2,241.3-241.3,241.3c-38.4,0-76.5-9.2-110.5-26.7
			L112.6,592.2C100.5,604.8,83.6,612,65.6,612z M370.7,20.2c-121.9,0-221,99.2-221,221c0,43.2,12.5,85.1,36.1,121.1
			c2.7,4.1,2,9.6-1.6,13L37.4,510.8c-11.1,9.1-17.2,21.9-17.2,35.6c0,25,20.4,45.4,45.4,45.4c12.5,0,24.1-5,32.8-14l153.4-141.7
			c3.2-3,7.9-3.5,11.8-1.4c32.6,18.1,69.6,27.7,107.1,27.7c121.9,0,221.1-99.2,221.1-221C591.8,119.4,492.6,20.2,370.7,20.2z
			 M370.7,408.6c-92.2,0-167.3-75.1-167.3-167.3c0-92.3,75-167.3,167.3-167.3C463,74,538,149,538,241.3
			C538,333.5,463,408.6,370.7,408.6z M370.7,94.2c-81.1,0-147.1,66-147.1,147.1c0,81.1,66,147.1,147.1,147.1
			c81.1,0,147.1-66,147.1-147.1C517.8,160.2,451.8,94.2,370.7,94.2z"/>
	</g>
</g>
</svg>
