<?xml version="1.0" encoding="utf-8"?>
<!-- Generator: Adobe Illustrator 21.1.0, SVG Export Plug-In . SVG Version: 6.00 Build 0)  -->
<svg version="1.1" id="Layer_1" xmlns="http://www.w3.org/2000/svg" xmlns:xlink="http://www.w3.org/1999/xlink" x="0px" y="0px"
	 viewBox="0 0 93.5 90" style="enable-background:new 0 0 93.5 90;" xml:space="preserve">
<style type="text/css">
	.st0{fill:#FFFFFF;}
</style>
<path class="st0" d="M66.7,34c-1.8,3.2-19.9,8.5-25.4,10.1c0,0-6.6,2.1-9.4,3.6c-2.7,1.5-4.1,3.2-4.1,3.2l-1.9,2.4l0.1-8.1l0.1-3
	c0.1-0.5,0.4-1.4,2.2-3c2.5-2.1,5.4-3,5.5-3c0.2-0.1,19.3-5.5,27.6-9.3c0.4-0.2,1.4-0.6,2.3-1.4c0.7-0.6,0.8-1.3,0.8-1.3v-0.4
	c0,0-0.1-0.7-0.8-1.3c-0.9-0.8-1.8-1.2-2.2-1.4c-6.6-2.9-19.7-6.9-25.1-8.5L33,11.1l2.4-1c2.9-1.2,6.9-2.6,11.9-4.2l0.3-0.1l2,0.6
	c15.8,5.2,16.7,6.8,17.1,7.5c1.9,3.5,2,9.5,2,9.8v0.5C68.7,24.5,68.6,30.5,66.7,34 M67.4,44.9l-0.1,3c-0.1,0.5-0.4,1.4-2.2,3
	c-2.5,2.1-5.4,3-5.5,3C59.4,54,40.3,59.4,32,63.2c-0.4,0.2-1.4,0.6-2.3,1.4c-0.7,0.6-0.8,1.3-0.8,1.3v0.4c0,0,0.1,0.7,0.8,1.3
	c0.9,0.8,1.8,1.2,2.2,1.4c6.6,2.9,19.7,6.9,25,8.5l3.5,1.4l-2.4,1c-2.9,1.2-6.9,2.6-11.9,4.2l-0.3,0.1l-2-0.6
	c-15.8-5.2-16.7-6.8-17.1-7.5c-1.9-3.5-2-9.5-2-9.8v-0.5c0-0.3,0-6.3,2-9.8c1.8-3.2,19.9-8.5,25.4-10.1c0,0,6.6-2.1,9.4-3.6
	c2.7-1.5,4.1-3.2,4.1-3.2l1.9-2.4L67.4,44.9z M59.6,0L58,0.5c-4.3,1.3-19,5.7-26.1,8.8c-0.4,0.2-1.4,0.6-2.3,1.4
	c-0.7,0.6-0.8,1.3-0.8,1.3v0.4c0,0,0.1,0.7,0.8,1.3c0.9,0.8,1.8,1.2,2.2,1.4c6.6,2.9,19.7,6.9,25.1,8.5l3.6,1.4l-2.4,1
	c-2.9,1.2-6.9,2.6-11.9,4.2l-0.3,0.1l-2-0.6c-15.8-5.2-16.7-6.8-17.1-7.5c-1.9-3.5-2-9.5-2-9.8v-0.5c0-0.3,0-5.6,1.6-9.1
	C10.5,10.6-0.3,27,0,45.8C0.4,66.9,14.6,84.5,33.9,90l1.5-0.4c4.3-1.3,19-5.7,26.1-8.8c0.4-0.2,1.4-0.6,2.3-1.4
	c0.7-0.6,0.8-1.3,0.8-1.3v-0.4c0,0-0.1-0.7-0.8-1.3c-0.9-0.8-1.8-1.2-2.2-1.4c-6.3-2.8-18.4-6.5-25.1-8.5L33,64.9l2.4-1
	c3-1.2,7-2.6,11.9-4.2l0.3-0.1l2,0.6c15.8,5.2,16.7,6.8,17.1,7.5c1.9,3.5,2,9.5,2,9.8V78c0,0.3,0,5.6-1.6,9.1
	C83,79.5,93.9,63,93.5,44.2C93.2,23.1,78.9,5.5,59.6,0"/>
</svg>
