<?xml version="1.0" encoding="utf-8"?>
<!-- Generator: Adobe Illustrator 21.1.0, SVG Export Plug-In . SVG Version: 6.00 Build 0)  -->
<svg version="1.1" id="Layer_1" xmlns="http://www.w3.org/2000/svg" xmlns:xlink="http://www.w3.org/1999/xlink" x="0px" y="0px"
	 viewBox="0 0 68.5 67" style="enable-background:new 0 0 68.5 67;" xml:space="preserve">
<style type="text/css">
	.st0{fill:#6a83b5;}
</style>
<path class="st0" d="M59.1,25.8l-1.7-4.1c0,0,4-9.1,3.7-9.4l-5.3-5.2c-0.4-0.4-9.4,3.8-9.4,3.8L42,9.2c0,0-3.7-9.2-4.2-9.2h-7.5
	c-0.5,0-3.9,9.2-3.9,9.2l-4.2,1.7c0,0-9.3-3.9-9.6-3.6l-5.3,5.2c-0.4,0.4,3.9,9.2,3.9,9.2l-1.7,4.1c0,0-9.4,3.6-9.4,4.1v7.4
	c0,0.5,9.4,3.9,9.4,3.9l1.7,4.1c0,0-4,9.1-3.7,9.4l5.3,5.2c0.4,0.4,9.4-3.8,9.4-3.8l4.2,1.7c0,0,3.7,9.2,4.2,9.2h7.5
	c0.5,0,3.9-9.2,3.9-9.2l4.2-1.7c0,0,9.2,3.9,9.6,3.6l5.3-5.2c0.4-0.4-3.9-9.2-3.9-9.2l1.7-4.1c0,0,9.4-3.6,9.4-4.1v-7.4
	C68.5,29.2,59.1,25.8,59.1,25.8z M45.2,33.5c0,5.9-4.9,10.7-11,10.7c-6,0-11-4.8-11-10.7c0-5.9,4.9-10.7,11-10.7
	C40.3,22.8,45.2,27.6,45.2,33.5z"/>
</svg>
