<?xml version="1.0" encoding="utf-8"?>
<!-- Generator: Adobe Illustrator 21.1.0, SVG Export Plug-In . SVG Version: 6.00 Build 0)  -->
<svg version="1.1" id="Layer_1" xmlns="http://www.w3.org/2000/svg" xmlns:xlink="http://www.w3.org/1999/xlink" x="0px" y="0px"
	 viewBox="0 0 213.2 214.3" style="enable-background:new 0 0 213.2 214.3;" xml:space="preserve">
<style type="text/css">
	.st0{fill:#004B8D;}
	.st1{fill:#0C223F;}
	.st2{fill:#FFFFFF;}
	.st3{fill:#E31937;}
</style>
<path class="st0" d="M183.2,214.3H30c-16.5,0-30-13.5-30-30V30C0,13.5,13.5,0,30,0h153.2c16.5,0,30,13.5,30,30v154.3
	C213.2,200.8,199.7,214.3,183.2,214.3z"/>
<path class="st1" d="M213.2,184.3v-71c0,0,0,0-0.1-0.1c-0.6-0.7-1.3-1.4-2-2c-0.6-0.7-1.3-1.4-2-2c-0.6-0.7-1.3-1.4-2-2
	c-0.6-0.7-1.3-1.4-2-2c-0.6-0.7-1.3-1.4-2-2c-0.6-0.7-1.3-1.4-2-2c-0.6-0.7-1.3-1.4-2-2c-0.6-0.7-1.3-1.4-2-2c-0.6-0.7-1.3-1.4-2-2
	c-0.6-0.7-1.3-1.4-2-2c-0.6-0.7-1.3-1.4-2-2c-0.6-0.7-1.3-1.4-2-2c-0.6-0.7-1.3-1.4-2-2c-0.6-0.7-1.3-1.4-2-2c-0.6-0.7-1.3-1.4-2-2
	c-0.6-0.7-1.3-1.4-2-2c-0.6-0.7-1.3-1.4-2-2c-0.6-0.7-1.3-1.4-2-2c-0.6-0.7-1.3-1.4-2-2c-0.6-0.7-1.3-1.4-2-2c-0.6-0.7-1.3-1.4-2-2
	c-0.6-0.7-1.3-1.4-2-2c-0.6-0.7-1.3-1.4-2-2c-4.5-5.4-12.2-6.6-18.1-6.6c-2.9,0-5.9,0.3-9.2,0.8c-0.1-0.1-0.2-0.2-0.3-0.2
	c0,0,0-0.1-0.1-0.1c-0.6-0.7-1.3-1.3-1.9-1.9c0,0,0-0.1-0.1-0.1c-0.6-0.7-1.3-1.3-1.9-1.9c0,0,0-0.1-0.1-0.1
	c-0.6-0.7-1.3-1.3-1.9-1.9c0,0,0-0.1-0.1-0.1c-0.6-0.7-1.3-1.3-1.9-1.9c0,0,0-0.1-0.1-0.1c-0.6-0.7-1.3-1.3-1.9-1.9
	c0,0,0-0.1-0.1-0.1c-0.6-0.7-1.3-1.3-1.9-1.9c0,0,0-0.1-0.1-0.1c-0.6-0.7-1.3-1.3-1.9-1.9c0,0,0-0.1-0.1-0.1
	c-0.6-0.7-1.3-1.3-1.9-1.9c0,0,0-0.1-0.1-0.1c-0.6-0.7-1.3-1.3-1.9-1.9c0,0,0-0.1-0.1-0.1c-0.6-0.7-1.3-1.3-1.9-1.9
	c0,0,0-0.1-0.1-0.1c-4-4.4-8.5-6.8-13.2-6.8l0,0c-5.9,0-10.4,3.7-13.2,6.8c-3.4,3.8-6.5,9.2-9,16c-0.7,2-1.4,4-2.1,6.1
	c-6.6-1.8-12.8-2.7-18.1-2.7c-6.5,0-15,1.4-19.2,8.2c-1.6,2.7-2.2,5.5-2.2,8.3l0,0c0,2.4,0.5,4.7,1,6.5c1.4,4.9,4.4,10.4,8.8,16.1
	c1.9,2.4,4,4.9,6.3,7.4c-2.3,2.5-4.4,4.9-6.3,7.4c-4.4,5.8-7.4,11.2-8.8,16.1c-0.5,1.9-1,4.1-1,6.5l0,0c0,2.7,0.6,5.6,2.2,8.3
	c0.9,1.4,1.9,2.6,3.1,3.6c0.6,0.7,1.3,1.4,2,2c0.6,0.7,1.3,1.4,2,2c0.6,0.7,1.3,1.4,2,2c0.6,0.7,1.3,1.4,2,2c0.6,0.7,1.3,1.4,2,2
	c0.6,0.7,1.3,1.4,2,2c0.6,0.7,1.3,1.4,2,2c0.6,0.7,1.3,1.4,2,2c0.6,0.7,1.3,1.4,2,2c0.6,0.7,1.3,1.4,2,2c0.6,0.7,1.3,1.4,2,2
	c0.6,0.7,1.3,1.4,2,2c0.6,0.7,1.3,1.4,2,2c0.6,0.7,1.3,1.4,2,2c0.6,0.7,1.3,1.4,2,2c0.6,0.7,1.3,1.4,2,2c0.6,0.7,1.3,1.4,2,2
	c0.6,0.7,1.3,1.4,2,2c0.6,0.7,1.3,1.4,2,2c0.6,0.7,1.3,1.4,2,2c0.6,0.7,1.3,1.4,2,2c0.6,0.7,1.3,1.4,2,2c0.6,0.7,1.3,1.4,2,2
	c0.6,0.7,1.3,1.4,2,2c0.6,0.7,1.3,1.4,2,2c0.6,0.7,1.3,1.4,2,2c0.6,0.7,1.3,1.4,2,2c0.6,0.7,1.3,1.4,2,2c0.6,0.7,1.3,1.4,2,2
	c0.6,0.7,1.3,1.4,2,2c0.6,0.7,1.3,1.4,2,2c0.6,0.7,1.3,1.4,2,2c0.4,0.5,0.9,1,1.4,1.4h70.1C199.7,214.3,213.2,200.8,213.2,184.3z"/>
<g>
	<path class="st2" d="M93.3,41.3c-3.4,3.8-6.5,9.2-9,16c-0.7,2-1.4,4-2.1,6.1c-6.6-1.8-12.8-2.7-18.1-2.7c-6.5,0-15,1.4-19.2,8.2
		c-1.6,2.7-2.2,5.5-2.2,8.3l0,0c0,2.4,0.5,4.7,1,6.5c1.4,4.9,4.4,10.4,8.8,16.1c1.9,2.4,4,4.9,6.3,7.4c-2.3,2.5-4.4,4.9-6.3,7.4
		c-4.4,5.8-7.4,11.2-8.8,16.1c-0.5,1.9-1,4.1-1,6.5l0,0c0,2.7,0.6,5.6,2.2,8.3c4.2,6.8,12.8,8.2,19.2,8.2c5.4,0,11.6-1,18.3-2.7
		c0.7,2.2,1.4,4.2,2.1,6.2c2.6,6.8,5.6,12.1,9.1,16c4,4.4,8.5,6.7,13.2,6.7l0,0c5.9,0,10.4-3.7,13.2-6.8c3.4-3.8,6.5-9.2,9-16
		c0.7-1.9,1.4-4,2.1-6.1c6.6,1.8,12.8,2.7,18.1,2.7l0,0c6.4,0,15-1.4,19.2-8.2c3.1-5,2.4-10.8,1.2-14.8c-1.4-4.9-4.4-10.4-8.8-16.1
		c-1.9-2.4-4-4.9-6.3-7.4c2.3-2.5,4.4-4.9,6.3-7.4c4.4-5.8,7.4-11.2,8.8-16.1c1.2-4,1.9-9.8-1.2-14.8c-4.2-6.8-12.8-8.2-19.2-8.2
		c-5.4,0-11.6,1-18.3,2.7c-0.7-2.2-1.4-4.3-2.1-6.2c-2.6-6.8-5.6-12.2-9.1-16c-4-4.4-8.5-6.8-13.2-6.8l0,0
		C100.6,34.5,96,38.2,93.3,41.3z M51.9,73.3c2.3-3.7,8.6-4.3,12.2-4.3c4.6,0,10.1,0.8,16.1,2.4c-1.3,6.1-2.3,12.6-2.9,19.4
		c-4.5,3.4-8.8,6.9-12.6,10.5c-2-2.2-3.9-4.4-5.6-6.6C51.9,85.5,49.2,77.5,51.9,73.3z M76.5,112.6c-2.1-1.8-4.2-3.6-6.1-5.4
		c1.9-1.8,4-3.6,6.1-5.4c0,1.8-0.1,3.6-0.1,5.4C76.5,109,76.5,110.8,76.5,112.6z M64.1,145.4c-3.6,0-9.9-0.6-12.2-4.3
		c-2.6-4.2,0.1-12.3,7.1-21.5c1.7-2.2,3.5-4.4,5.6-6.5c3.9,3.6,8.1,7.2,12.7,10.6c0.6,6.8,1.6,13.3,3,19.3
		C74.2,144.6,68.7,145.4,64.1,145.4z M161.4,141.1c-2.3,3.7-8.6,4.3-12.2,4.3l0,0c-4.6,0-10.1-0.8-16.1-2.5c1.4-6.1,2.3-12.6,3-19.4
		c4.5-3.4,8.8-6.9,12.6-10.5c2,2.2,3.9,4.4,5.6,6.6C161.3,128.8,164,136.9,161.4,141.1z M136.7,101.8c2.1,1.8,4.2,3.6,6.1,5.4
		c-1.9,1.8-4,3.6-6.1,5.4c0-1.8,0.1-3.6,0.1-5.4C136.8,105.3,136.7,103.6,136.7,101.8z M149.2,69c3.6,0,9.9,0.6,12.2,4.3
		c2.6,4.2-0.1,12.3-7.1,21.5c-1.7,2.2-3.5,4.4-5.6,6.6c-3.9-3.6-8.1-7.1-12.7-10.6c-0.6-6.8-1.6-13.3-3-19.3
		C139.1,69.8,144.5,69,149.2,69z M88,73.9c0.1,0,0.1,0,0.2,0.1c3,1.1,6.1,2.3,9.2,3.6c-2.2,1.3-4.5,2.6-6.7,3.9
		c-1.5,1-3.1,1.9-4.6,2.9C86.7,80.8,87.3,77.3,88,73.9z M88.1,140.5c-0.7-3.3-1.4-6.8-1.9-10.5c1.5,1,3,1.9,4.5,2.9
		c2.2,1.4,4.4,2.7,6.7,3.9C94.3,138.1,91.2,139.4,88.1,140.5C88.2,140.4,88.2,140.4,88.1,140.5z M121.3,154.1
		c-4.1,10.9-9.5,17.4-14.5,17.4l0,0c-5,0-10.4-6.5-14.6-17.4c-0.7-1.8-1.3-3.7-1.9-5.7c5.3-1.8,10.8-4.1,16.4-6.9
		c5.6,2.7,11.2,5.1,16.5,6.9C122.6,150.5,121.9,152.4,121.3,154.1z M125.2,140.5c-0.1,0-0.1,0-0.2-0.1c-3-1.1-6.1-2.3-9.2-3.7
		c2.2-1.3,4.5-2.6,6.7-3.9c1.5-1,3.1-1.9,4.6-2.9C126.6,133.6,125.9,137.1,125.2,140.5z M128.5,107.1c0,4.1-0.1,8.1-0.4,12
		c-3.2,2.3-6.5,4.5-10,6.7c-3.8,2.4-7.7,4.5-11.5,6.6c-3.9-2-7.7-4.2-11.5-6.6c-3.4-2.1-6.8-4.4-9.9-6.6c-0.3-3.9-0.4-7.9-0.4-11.9
		c0-4.1,0.1-8.1,0.4-12c3.2-2.3,6.5-4.5,10-6.7c3.8-2.4,7.7-4.5,11.5-6.6c3.9,2,7.7,4.2,11.5,6.6c3.4,2.1,6.8,4.4,9.9,6.6
		C128.4,99.1,128.5,103.1,128.5,107.1z M125.1,73.9c0.7,3.3,1.4,6.9,1.9,10.5c-1.5-1-3-1.9-4.5-2.9c-2.2-1.4-4.4-2.7-6.7-3.9
		C118.9,76.2,122,75,125.1,73.9C125,73.9,125.1,73.9,125.1,73.9z M106.5,42.8c5,0,10.4,6.5,14.6,17.4c0.7,1.8,1.3,3.7,1.9,5.7
		c-5.3,1.8-10.8,4.2-16.4,6.9c-5.6-2.7-11.2-5.1-16.5-6.9c0.6-2,1.2-3.8,1.9-5.6C96.1,49.3,101.5,42.8,106.5,42.8z"/>
	<circle class="st3" cx="106.6" cy="107.1" r="12.7"/>
</g>
</svg>
