<?xml version="1.0" encoding="utf-8"?>
<!-- Generator: Adobe Illustrator 21.1.0, SVG Export Plug-In . SVG Version: 6.00 Build 0)  -->
<svg version="1.1" id="Layer_1" xmlns="http://www.w3.org/2000/svg" xmlns:xlink="http://www.w3.org/1999/xlink" x="0px" y="0px"
	 viewBox="0 0 120.6 127.8" style="enable-background:new 0 0 120.6 127.8;" xml:space="preserve">
<style type="text/css">
	.st0{fill:#004B8D;}
	.st1{fill:#E31937;}
	.st2{fill:#242D3C;}
</style>
<g>
	<circle class="st0" cx="60.3" cy="59.8" r="36.4"/>
	<circle class="st1" cx="60.3" cy="59.8" r="10.5"/>
	<g>
		<g>
			<path class="st2" d="M69.3,115.6l-3.2-3.3c4.1-3.9,7.6-11.6,10.1-21.6c1.4-5.8,2.4-12.1,2.9-18.8c0.3-3.9,0.5-7.9,0.5-12
				s-0.2-8.1-0.5-12c-0.5-6.7-1.5-13-2.9-18.8C72.5,14.2,66.3,4.6,60.3,4.6C54.2,4.6,48.1,14,44.4,29C43,34.8,42,41.2,41.5,47.8
				c-0.3,3.9-0.5,7.9-0.5,12s0.2,8.1,0.5,12c0.5,6.7,1.5,13,2.9,18.8c1.3,5.5,3,10.3,5,14.2l-4.1,2.1c-2.1-4.2-3.9-9.3-5.3-15.1
				c-1.5-6-2.5-12.6-3-19.5c-0.3-4-0.5-8.2-0.5-12.4s0.2-8.4,0.5-12.4c0.6-6.9,1.6-13.5,3-19.5C44.3,10.2,51.7,0,60.3,0
				s16,10.2,20.3,28c1.5,6,2.5,12.6,3.1,19.5c0.3,4,0.5,8.2,0.5,12.4s-0.2,8.4-0.5,12.4c-0.6,7-1.6,13.5-3.1,19.5
				C77.9,102.7,74,111,69.3,115.6z"/>
			<path class="st2" d="M96.2,96.5c-5.2,0-11.5-1-18.5-3.1c-5.9-1.7-12.1-4.1-18.4-7.1c-3.6-1.7-7.3-3.7-11-5.8
				c-3.6-2.1-7.1-4.3-10.5-6.6c-5.8-4-10.9-8.2-15.4-12.4C14.2,53.7,9,46.1,7.4,39.7l4.5-1.1c1.4,5.5,6.2,12.4,13.7,19.6
				c4.3,4.1,9.2,8.1,14.8,12c3.2,2.2,6.6,4.4,10.1,6.4s7.1,3.9,10.6,5.6C67.4,85,73.4,87.3,79,89c14.9,4.3,26,3.8,29.1-1.5
				c3-5.2-2.2-15.4-13.2-26c-4.3-4.1-9.3-8.1-14.8-11.9c-3.2-2.2-6.7-4.4-10.1-6.4s-6.8-3.8-10.2-5.4l-0.4-0.2
				c-6.1-2.9-12.1-5.2-17.7-6.9c-5.4-1.6-10.4-2.5-14.8-2.8l0.3-4.6c4.7,0.3,10,1.3,15.8,3c5.7,1.7,11.8,4,18,6.9l0,0l0.5,0.2
				c3.7,1.7,7.3,3.7,11,5.8c3.6,2.1,7.1,4.3,10.5,6.6c5.7,4,10.9,8.1,15.4,12.4c13.2,12.6,18.3,24.1,14,31.6
				C109.5,94.2,104,96.5,96.2,96.5z"/>
			<path class="st2" d="M24.3,96.5c-7.8,0-13.3-2.3-15.9-6.7c-4.3-7.4,0.8-19,14-31.6c4.4-4.2,9.6-8.4,15.4-12.4
				c3.3-2.3,6.9-4.5,10.5-6.6s7.3-4,10.9-5.8l0.5-0.2c6.2-2.9,12.2-5.2,18-6.9c10.9-3.2,20-3.9,26.3-2.1l-1.3,4.4
				c-5.4-1.5-13.9-0.8-23.8,2.1c-5.7,1.6-11.6,4-17.7,6.9l-0.5,0.2c-3.4,1.6-6.8,3.4-10.2,5.4c-3.5,2-6.9,4.2-10.1,6.4
				c-5.6,3.8-10.6,7.9-14.8,12c-11.1,10.6-16.3,20.7-13.2,26c3.1,5.3,14.2,5.9,29.1,1.5c5.7-1.7,11.7-4,17.8-6.9
				c3.5-1.7,7.1-3.6,10.6-5.6s6.9-4.2,10.1-6.4c5.5-3.8,10.5-7.8,14.8-11.9c4.1-3.9,7.4-7.7,9.8-11.4l3.8,2.5
				c-2.6,3.9-6.1,8-10.5,12.2c-4.5,4.3-9.6,8.5-15.4,12.4c-3.3,2.3-6.8,4.5-10.5,6.6c-3.6,2.1-7.3,4-11,5.8
				c-6.3,3-12.5,5.4-18.4,7.1C35.8,95.5,29.6,96.5,24.3,96.5z"/>
		</g>
		<path class="st2" d="M110.1,41.5c-5.8,0-10.5-4.7-10.5-10.5s4.7-10.5,10.5-10.5s10.5,4.7,10.5,10.5S115.9,41.5,110.1,41.5z
			 M110.1,25.2c-3.2,0-5.8,2.6-5.8,5.9c0,3.2,2.6,5.8,5.8,5.8c3.2,0,5.9-2.6,5.9-5.8C116,27.8,113.3,25.2,110.1,25.2z"/>
		<path class="st2" d="M110.1,41.5c-5.8,0-10.5-4.7-10.5-10.5s4.7-10.5,10.5-10.5s10.5,4.7,10.5,10.5S115.9,41.5,110.1,41.5z
			 M110.1,25.2c-3.2,0-5.8,2.6-5.8,5.9c0,3.2,2.6,5.8,5.8,5.8c3.2,0,5.9-2.6,5.9-5.8C116,27.8,113.3,25.2,110.1,25.2z"/>
		<path class="st2" d="M10.5,41.5C4.7,41.5,0,36.8,0,31.1s4.7-10.5,10.5-10.5S21,25.3,21,31.1S16.2,41.5,10.5,41.5z M10.5,25.2
			c-3.2,0-5.8,2.6-5.8,5.8s2.6,5.8,5.8,5.8s5.9-2.6,5.9-5.8C16.3,27.8,13.7,25.2,10.5,25.2z"/>
		<path class="st2" d="M60.3,127.8c-5.8,0-10.5-4.7-10.5-10.5s4.7-10.5,10.5-10.5s10.5,4.7,10.5,10.5
			C70.7,123.2,66.1,127.8,60.3,127.8z M60.3,111.5c-3.2,0-5.8,2.6-5.8,5.9c0,3.2,2.6,5.8,5.8,5.8s5.9-2.6,5.9-5.8
			C66.1,114.2,63.5,111.5,60.3,111.5z"/>
	</g>
</g>
</svg>
