<?xml version="1.0" encoding="utf-8"?>
<!-- Generator: Adobe Illustrator 21.1.0, SVG Export Plug-In . SVG Version: 6.00 Build 0)  -->
<svg version="1.1" id="Layer_1" xmlns="http://www.w3.org/2000/svg" xmlns:xlink="http://www.w3.org/1999/xlink" x="0px" y="0px"
	 viewBox="0 0 227.9 262.9" style="enable-background:new 0 0 227.9 262.9;" xml:space="preserve">
<style type="text/css">
	.st0{fill:#6E5F4C;}
	.st1{fill-rule:evenodd;clip-rule:evenodd;fill:#8ED8F8;}
	.st2{fill-rule:evenodd;clip-rule:evenodd;fill:#FFFFFF;}
	.st3{fill:#723D2A;}
</style>
<g>
	<g>
		<path class="st0" d="M46.3,0H206h17h4.9l-0.3,4.9c-0.5,7.7-5.4,12.5-10.2,17.2c-3.3,3.2-6.6,6.4-6.8,9.8h0V247
			c0,4.4-1.8,8.4-4.7,11.3c-2.9,2.9-6.9,4.7-11.3,4.7h-137c-4.4,0-8.4-1.8-11.3-4.7c-2.9-2.9-4.7-6.9-4.7-11.3V39.2
			c0-4.8-7.7-7.6-15.9-10.5C13.3,24.2,0,19.3,0,4.6V0h4.6H46.3L46.3,0z M206,9.2H46.3H10.4c3,5.2,10.9,8.1,18.5,10.9
			c11.3,4.1,22,7.9,22,19.2V247c0,1.9,0.8,3.5,2,4.8c1.2,1.2,2.9,2,4.8,2h137c1.8,0,3.5-0.8,4.8-2c1.2-1.2,2-2.9,2-4.8V31.9l0-0.2
			c0.3-7.1,4.9-11.6,9.6-16.2c2.1-2,4.2-4.1,5.6-6.3H206z"/>
	</g>
	<g>
		<path class="st1" d="M52.9,59.4h116.7v140.2c0,4,3.3,7.3,7.3,7.3l0,0c4,0,7.3-3.3,7.3-7.3V59.4h15.2v186.1c0,1.8-0.7,3.4-1.9,4.6
			c-1.2,1.2-2.8,1.9-4.6,1.9H59.4c-1.8,0-3.4-0.7-4.6-1.9c-1.2-1.2-1.9-2.8-1.9-4.6V59.4L52.9,59.4z M176.8,216.6
			c-4.1,0-7.4,3.3-7.4,7.4c0,4.1,3.3,7.4,7.4,7.4c4.1,0,7.4-3.3,7.4-7.4C184.3,219.9,181,216.6,176.8,216.6L176.8,216.6z M64.1,92
			h-0.9v0.9v127.3v0.9h0.9H69h0.9v-0.9v-7.1H92h0.9v-0.9v-4.9v-0.9H92H69.9v-8.5H92h0.9v-0.9v-4.9v-0.9H92H69.9v-8.5H92h0.9v-0.9
			v-4.9V176H92H69.9v-10.1h34.7h0.9v-0.9v-4.9v-0.9h-0.9H69.9v-8.5H92h0.9v-0.9v-4.9V144H92H69.9v-8.5H92h0.9v-0.9v-4.9v-0.9H92
			H69.9v-8.5H92h0.9v-0.9v-4.9v-0.9H92H69.9v-8.5h34.7h0.9v-0.9v-4.9v-0.9h-0.9H69.9v-5.5V92H69H64.1z"/>
	</g>
	<g>
		<polygon class="st2" points="64.1,92.9 69,92.9 69,99.3 104.7,99.3 104.7,104.1 69,104.1 69,114.5 92,114.5 92,119.3 69,119.3 
			69,129.7 92,129.7 92,134.5 69,134.5 69,144.9 92,144.9 92,149.7 69,149.7 69,160.1 104.7,160.1 104.7,164.9 69,164.9 69,176.9 
			92,176.9 92,181.7 69,181.7 69,192.1 92,192.1 92,196.9 69,196.9 69,207.3 92,207.3 92,212.1 69,212.1 69,220.2 64.1,220.2 		"/>
	</g>
	<g>
		<path class="st3" d="M64.1,92H69h0.9v0.9v5.5h34.7h0.9v0.9v4.9v0.9h-0.9H69.9v8.5H92h0.9v0.9v4.9v0.9H92H69.9v8.5H92h0.9v0.9v4.9
			v0.9H92H69.9v8.5H92h0.9v0.9v4.9v0.9H92H69.9v8.5h34.7h0.9v0.9v4.9v0.9h-0.9H69.9V176H92h0.9v0.9v4.9v0.9H92H69.9v8.5H92h0.9v0.9
			v4.9v0.9H92H69.9v8.5H92h0.9v0.9v4.9v0.9H92H69.9v7.1v0.9H69h-4.9h-0.9v-0.9V92.9V92H64.1L64.1,92z M68.1,93.8h-3v125.4h3v-7.1
			v-0.9H69h22.1v-3H69h-0.9v-0.9v-10.3V196H69h22.1v-3H69h-0.9v-0.9v-10.3v-0.9H69h22.1v-3H69h-0.9v-0.9v-11.9V164H69h34.7v-3H69
			h-0.9v-0.9v-10.3v-0.9H69h22.1v-3H69h-0.9v-0.9v-10.3v-0.9H69h22.1v-3H69h-0.9v-0.9v-10.3v-0.9H69h22.1v-3H69h-0.9v-0.9v-10.3
			v-0.9H69h34.7v-3H69h-0.9v-0.9V93.8z"/>
	</g>
</g>
</svg>
