<?xml version="1.0" encoding="utf-8"?>
<!-- Generator: Adobe Illustrator 21.1.0, SVG Export Plug-In . SVG Version: 6.00 Build 0)  -->
<svg version="1.1" id="Layer_1" xmlns="http://www.w3.org/2000/svg" xmlns:xlink="http://www.w3.org/1999/xlink" x="0px" y="0px"
	 viewBox="0 0 103.6 119.2" style="enable-background:new 0 0 103.6 119.2;" xml:space="preserve">
<style type="text/css">
	.st0{fill:#004B8D;}
	.st1{fill:#242D3C;}
</style>
<g>
	<path class="st0" d="M91.4,99.2L69.3,77h-35L12.2,99.2c-1.6,1.6-2.1,4-1.2,6.1c0.9,2.1,2.9,3.4,5.1,3.4h71.4c2.3,0,4.3-1.3,5.1-3.4
		C93.5,103.1,93,100.7,91.4,99.2z"/>
	<g>
		<path class="st1" d="M65.6,18.4H38c-5.1,0-9.2-4.1-9.2-9.2S32.9,0,38,0h27.6c5.1,0,9.2,4.1,9.2,9.2S70.7,18.4,65.6,18.4z M38,4.6
			c-2.5,0-4.6,2.1-4.6,4.6c0,2.5,2.1,4.6,4.6,4.6h27.6c2.5,0,4.6-2.1,4.6-4.6c0-2.5-2.1-4.6-4.6-4.6H38z"/>
		<path class="st1" d="M87.5,119.2H16.1c-6.5,0-12.4-3.9-14.9-9.9c-2.5-6-1.1-12.9,3.5-17.5l31-31V13.8h32.2v46.9l31,31
			c4.6,4.6,6,11.5,3.5,17.5C99.9,115.3,94,119.2,87.5,119.2z M40.3,18.4v44.2L8,94.9c-3.3,3.3-4.3,8.2-2.5,12.5
			c1.8,4.3,6,7.1,10.6,7.1h71.4c4.7,0,8.9-2.8,10.6-7.1c1.8-4.3,0.8-9.2-2.5-12.5L63.3,62.6V18.4H40.3z"/>
		<g>
			<rect x="47.2" y="106.3" class="st1" width="9.2" height="4.6"/>
			<rect x="47.2" y="95.8" class="st1" width="9.2" height="4.6"/>
			<rect x="47.2" y="85.3" class="st1" width="9.2" height="4.6"/>
			<rect x="47.2" y="74.7" class="st1" width="9.2" height="4.6"/>
			<rect x="47.2" y="64.2" class="st1" width="9.2" height="4.6"/>
			<rect x="47.2" y="53.7" class="st1" width="9.2" height="4.6"/>
			<rect x="47.2" y="43.1" class="st1" width="9.2" height="4.6"/>
			<rect x="47.2" y="32.6" class="st1" width="9.2" height="4.6"/>
			<rect x="47.2" y="22.1" class="st1" width="9.2" height="4.6"/>
		</g>
	</g>
</g>
</svg>
