<?xml version="1.0" encoding="utf-8"?>
<!-- Generator: Adobe Illustrator 21.1.0, SVG Export Plug-In . SVG Version: 6.00 Build 0)  -->
<svg version="1.1" id="Layer_1" xmlns="http://www.w3.org/2000/svg" xmlns:xlink="http://www.w3.org/1999/xlink" x="0px" y="0px"
	 viewBox="0 0 102.1 127" style="enable-background:new 0 0 102.1 127;" xml:space="preserve">
<style type="text/css">
	.st0{fill:#242D3C;}
	.st1{fill:#004B8D;}
</style>
<g>
	<path class="st0" d="M91.3,127l-5.8-35.5l9.8-32.3c1.5-4.4,2.2-8.8,2.2-13.4c0-22.7-18.5-41.2-41.2-41.2
		c-22.7,0-41.2,18.5-41.2,41.2l0,5.6L6.4,76.9h10.2l2.2,27.3l21.7-2l3,24.1l-4.6,0.6l-2.4-19.7l-21.9,2l-2.2-27.7H0l10.6-30.9l0-4.8
		C10.6,20.5,31.1,0,56.4,0c25.2,0,45.8,20.5,45.8,45.8c0,5.1-0.8,10.1-2.5,14.8l-9.5,31.2l5.7,34.4L91.3,127z"/>
	<path class="st1" d="M80.9,35.6c2.3-4,1.7-9.2-1.7-12.6c-3.4-3.4-8.6-4-12.6-1.8c-1.3-4.4-5.3-7.7-10.2-7.7
		c-4.8,0-8.9,3.3-10.2,7.7c-4-2.2-9.2-1.7-12.6,1.8c-3.4,3.4-4,8.6-1.7,12.6c-4.4,1.3-7.7,5.3-7.7,10.2c0,5.8,4.7,10.6,10.6,10.6H78
		c2.9,0,5.6-1.2,7.5-3.1c1.9-1.9,3.1-4.6,3.1-7.5C88.6,40.9,85.3,36.9,80.9,35.6z"/>
	<polygon class="st0" points="58.6,79.1 54.2,77.7 60.1,58.6 46.3,58.6 54.2,33.6 58.6,34.9 52.6,54 66.4,54 	"/>
</g>
</svg>
