<?xml version="1.0" encoding="utf-8"?>
<!-- Generator: Adobe Illustrator 21.1.0, SVG Export Plug-In . SVG Version: 6.00 Build 0)  -->
<svg version="1.1" id="Layer_1" xmlns="http://www.w3.org/2000/svg" xmlns:xlink="http://www.w3.org/1999/xlink" x="0px" y="0px"
	 viewBox="0 0 345.4 504.3" style="enable-background:new 0 0 345.4 504.3;" xml:space="preserve">
<style type="text/css">
	.st0{fill:#E31937;}
	.st1{fill:#004B8D;}
	.st2{fill:#FFFFFF;}
</style>
<g>
	<g>
		<path class="st0" d="M326.4,504.3H19c-10.5,0-19-8.5-19-19V43.7c0-10.5,8.5-19,19-19h40.9v30.4c0,6.1,5,11.1,11.1,11.1h203.3
			c6.1,0,11.1-5,11.1-11.1V24.7h40.9c10.5,0,19,8.5,19,19v441.6C345.4,495.8,336.9,504.3,326.4,504.3L326.4,504.3z M19,31.6
			c-6.7,0-12.1,5.4-12.1,12.1v441.6c0,6.7,5.4,12.1,12.1,12.1h307.4c6.7,0,12.1-5.4,12.1-12.1V43.7c0-6.7-5.4-12.1-12.1-12.1h-34
			v23.5c0,9.9-8.1,18-18,18H71.1c-9.9,0-18-8.1-18-18V31.6H19L19,31.6z"/>
	</g>
	<g>
		<path class="st1" d="M28.5,38.2h17.7V44H27.8v414.3h289.8V44h-17.5v-5.8h16.8c8,0,14.6,6.6,14.6,14.6v423.4
			c0,8-6.6,14.6-14.6,14.6H28.5c-8,0-14.6-6.6-14.6-14.6V52.8C13.9,44.8,20.5,38.2,28.5,38.2z"/>
	</g>
	<g>
		<path class="st2" d="M73.4,3.4H272c2,0,3.6,1.6,3.6,3.6v45.5c0,2-1.6,3.6-3.6,3.6H73.4c-2,0-3.6-1.6-3.6-3.6V7
			C69.8,5.1,71.5,3.4,73.4,3.4z"/>
		<path class="st0" d="M272,59.6H73.4c-3.9,0-7-3.1-7-7V7c0-3.9,3.1-7,7-7H272c3.9,0,7,3.1,7,7v45.5C279,56.4,275.8,59.6,272,59.6
			L272,59.6z M73.4,6.9l-0.1,45.7L272,52.7c0.1,0,0.1-0.1,0.1-0.1V7L73.4,6.9L73.4,6.9z"/>
	</g>
	<g>
		<path class="st1" d="M86.2,99.4h204.5c4.3,0,7.9,3.6,7.9,7.9l0,0c0,4.3-3.6,7.9-7.9,7.9H86.2c-4.3,0-7.9-3.6-7.9-7.9l0,0
			C78.3,103,81.9,99.4,86.2,99.4z"/>
	</g>
	<g>
		<path class="st1" d="M54.7,139.9h236c4.3,0,7.9,3.6,7.9,7.9l0,0c0,4.3-3.6,7.9-7.9,7.9h-236c-4.3,0-7.9-3.6-7.9-7.9l0,0
			C46.8,143.4,50.3,139.9,54.7,139.9z"/>
	</g>
	<g>
		<path class="st1" d="M54.7,181.2h236c4.3,0,7.9,3.6,7.9,7.9l0,0c0,4.3-3.6,7.9-7.9,7.9h-236c-4.3,0-7.9-3.6-7.9-7.9l0,0
			C46.8,184.8,50.3,181.2,54.7,181.2z"/>
	</g>
	<g>
		<path class="st1" d="M54.7,221.7h236c4.3,0,7.9,3.6,7.9,7.9l0,0c0,4.3-3.6,7.9-7.9,7.9h-236c-4.3,0-7.9-3.6-7.9-7.9l0,0
			C46.8,225.2,50.3,221.7,54.7,221.7z"/>
	</g>
	<g>
		<path class="st1" d="M54.7,261.2h236c4.3,0,7.9,3.6,7.9,7.9l0,0c0,4.3-3.6,7.9-7.9,7.9h-236c-4.3,0-7.9-3.6-7.9-7.9l0,0
			C46.8,264.8,50.3,261.2,54.7,261.2z"/>
	</g>
	<g>
		<path class="st1" d="M54.7,301.9h236c4.3,0,7.9,3.6,7.9,7.9l0,0c0,4.3-3.6,7.9-7.9,7.9h-236c-4.3,0-7.9-3.6-7.9-7.9l0,0
			C46.8,305.5,50.3,301.9,54.7,301.9z"/>
	</g>
	<g>
		<path class="st1" d="M54.7,343.3h236c4.3,0,7.9,3.6,7.9,7.9l0,0c0,4.3-3.6,7.9-7.9,7.9h-236c-4.3,0-7.9-3.6-7.9-7.9l0,0
			C46.8,346.8,50.3,343.3,54.7,343.3z"/>
	</g>
	<g>
		<path class="st1" d="M54.7,383.7h236c4.3,0,7.9,3.6,7.9,7.9l0,0c0,4.3-3.6,7.9-7.9,7.9h-236c-4.3,0-7.9-3.6-7.9-7.9l0,0
			C46.8,387.3,50.3,383.7,54.7,383.7z"/>
	</g>
</g>
</svg>
