<?xml version="1.0" encoding="utf-8"?>
<!-- Generator: Adobe Illustrator 21.1.0, SVG Export Plug-In . SVG Version: 6.00 Build 0)  -->
<svg version="1.1" id="Layer_1" xmlns="http://www.w3.org/2000/svg" xmlns:xlink="http://www.w3.org/1999/xlink" x="0px" y="0px"
	 viewBox="0 0 90 119.7" style="enable-background:new 0 0 90 119.7;" xml:space="preserve">
<style type="text/css">
	.st0{fill:#242D3C;}
	.st1{fill:#004B8D;}
	.st2{fill:#E31937;}
</style>
<g>
	<g>
		<polygon class="st0" points="90,119.7 0,119.7 0,7.2 37.8,7.2 37.8,11.8 4.6,11.8 4.6,115.1 85.4,115.1 85.4,11.8 52.2,11.8 
			52.2,7.2 90,7.2 		"/>
		<polygon class="st0" points="81.9,111.6 8.1,111.6 8.1,9.5 12.7,9.5 12.7,107 77.3,107 77.3,9.5 81.9,9.5 		"/>
		<path class="st0" d="M63,26.2H27v-19h8.8C36.8,3.1,40.6,0,45,0s8.2,3.1,9.2,7.2H63V26.2z M31.6,21.6h26.9v-9.8h-8.5V9.5
			c0-2.7-2.2-4.9-4.9-4.9c-2.7,0-4.9,2.2-4.9,4.9v2.3h-8.5V21.6z"/>
	</g>
	<g>
		<g>
			<rect x="45" y="80.9" class="st1" width="25.9" height="4.6"/>
			<rect x="45" y="90.1" class="st1" width="12.9" height="4.6"/>
		</g>
		<g>
			<rect x="45" y="38.5" class="st1" width="25.9" height="4.6"/>
			<rect x="45" y="47.7" class="st1" width="12.9" height="4.6"/>
		</g>
		<g>
			<rect x="45" y="59.7" class="st1" width="25.9" height="4.6"/>
			<rect x="45" y="68.9" class="st1" width="12.9" height="4.6"/>
		</g>
		<g>
			<circle class="st1" cx="27.4" cy="45.4" r="8.3"/>
			<polygon class="st2" points="27.4,51.2 21.2,45 24.5,41.7 27.4,44.7 35,37.1 38.3,40.4 			"/>
		</g>
		<g>
			<circle class="st1" cx="27.4" cy="66.6" r="8.3"/>
			<polygon class="st2" points="27.4,72.4 21.2,66.2 24.5,62.9 27.4,65.9 35,58.3 38.3,61.5 			"/>
		</g>
		<g>
			<circle class="st1" cx="27.4" cy="87.8" r="8.3"/>
			<polygon class="st2" points="27.4,93.6 21.2,87.3 24.5,84.1 27.4,87 35,79.5 38.3,82.7 			"/>
		</g>
	</g>
</g>
</svg>
