<?xml version="1.0" encoding="utf-8"?>
<!-- Generator: Adobe Illustrator 21.1.0, SVG Export Plug-In . SVG Version: 6.00 Build 0)  -->
<svg version="1.1" id="Layer_1" xmlns="http://www.w3.org/2000/svg" xmlns:xlink="http://www.w3.org/1999/xlink" x="0px" y="0px"
	 viewBox="0 0 167.1 554.2" style="enable-background:new 0 0 167.1 554.2;" xml:space="preserve">
<style type="text/css">
	.st0{fill:#6E5F4C;}
	.st1{fill-rule:evenodd;clip-rule:evenodd;fill:#8ED8F8;}
</style>
<g>
	<g>
		<g>
			<path class="st0" d="M104.6,135.4c3.6-3.1,7-6.3,10.4-9.6C147.2,93.6,167.1,49.1,167.1,0h-20.3c0,43.5-17.6,82.9-46.2,111.4
				c-4.2,4.2-8.5,8.1-13.1,11.8C93.4,127,99.1,131.1,104.6,135.4z"/>
		</g>
		<g>
			<path class="st0" d="M62.5,141.7c-3.6,3.1-7,6.3-10.4,9.6C19.9,183.5,0,228,0,277.1c0,49.1,19.9,93.6,52.1,125.8
				c9.5,9.5,20,17.9,31.5,25.1c6,4.5,11.7,9.5,17.1,14.8c28.5,28.5,46.2,67.9,46.2,111.4h20.3c0-49.1-19.9-93.6-52.1-125.8
				c-9.5-9.5-20-17.9-31.4-25.1c-6-4.5-11.7-9.5-17.1-14.8C38,360,20.3,320.6,20.3,277.1c0-43.5,17.6-82.9,46.2-111.4
				c4.2-4.2,8.5-8.1,13.1-11.8C73.7,150.1,68,146,62.5,141.7z"/>
		</g>
		<g>
			<path class="st0" d="M83.6,150.9c-11.4-7.2-22-15.6-31.5-25.1C19.9,93.6,0,49.1,0,0h20.3c0,43.5,17.6,82.9,46.2,111.4
				c5.3,5.3,11,10.3,17.1,14.8c11.4,7.2,22,15.6,31.4,25.1c32.2,32.2,52.1,76.7,52.1,125.8c0,49.1-19.9,93.6-52.1,125.8
				c-3.3,3.3-6.8,6.5-10.4,9.6c-5.5-4.3-11.3-8.4-17.1-12.2c4.6-3.7,9-7.6,13.1-11.8c28.5-28.5,46.2-67.9,46.2-111.4
				c0-43.5-17.6-82.9-46.2-111.4C95.3,160.3,89.6,155.4,83.6,150.9z"/>
		</g>
		<g>
			<path class="st0" d="M62.5,418.8c-3.6,3.1-7,6.3-10.4,9.6C19.9,460.6,0,505.1,0,554.2h20.3c0-43.5,17.6-82.9,46.2-111.4
				c4.2-4.2,8.5-8.1,13.1-11.8C73.7,427.2,68,423.1,62.5,418.8z"/>
		</g>
	</g>
	<g>
		<g>
			<path class="st1" d="M28.1,541h109.2c1.7,0,3.1,1.4,3.1,3.1l0,0c0,1.7-1.4,3.1-3.1,3.1H28.1c-1.7,0-3.1-1.4-3.1-3.1l0,0
				C24.9,542.4,26.3,541,28.1,541z"/>
		</g>
		<g>
			<path class="st1" d="M29.8,527.4h105.9c1.7,0,3.1,1.4,3.1,3.1l0,0c0,1.7-1.4,3.1-3.1,3.1H29.8c-1.7,0-3.1-1.4-3.1-3.1l0,0
				C26.6,528.8,28,527.4,29.8,527.4z"/>
		</g>
		<g>
			<path class="st1" d="M33.1,513.9h99.2c1.7,0,3.1,1.4,3.1,3.1l0,0c0,1.7-1.4,3.1-3.1,3.1H33.1c-1.7,0-3.1-1.4-3.1-3.1l0,0
				C29.9,515.3,31.3,513.9,33.1,513.9z"/>
		</g>
		<g>
			<path class="st1" d="M36.7,500.3h92.1c1.7,0,3.1,1.4,3.1,3.1l0,0c0,1.7-1.4,3.1-3.1,3.1H36.7c-1.7,0-3.1-1.4-3.1-3.1l0,0
				C33.5,501.7,34.9,500.3,36.7,500.3z"/>
		</g>
		<g>
			<path class="st1" d="M41.8,488.1h81.7c1.7,0,3.1,1.4,3.1,3.1l0,0c0,1.7-1.4,3.1-3.1,3.1H41.8c-1.7,0-3.1-1.4-3.1-3.1l0,0
				C38.7,489.5,40.1,488.1,41.8,488.1z"/>
		</g>
		<g>
			<path class="st1" d="M47.9,475.9h69.5c1.7,0,3.1,1.4,3.1,3.1l0,0c0,1.7-1.4,3.1-3.1,3.1H47.9c-1.7,0-3.1-1.4-3.1-3.1l0,0
				C44.8,477.3,46.2,475.9,47.9,475.9z"/>
		</g>
		<g>
			<path class="st1" d="M56,463.7h53.3c1.7,0,3.1,1.4,3.1,3.1l0,0c0,1.7-1.4,3.1-3.1,3.1H56c-1.7,0-3.1-1.4-3.1-3.1l0,0
				C52.9,465.1,54.3,463.7,56,463.7z"/>
		</g>
		<g>
			<path class="st1" d="M66.2,451.5h32.9c1.7,0,3.1,1.4,3.1,3.1l0,0c0,1.7-1.4,3.1-3.1,3.1H66.2c-1.7,0-3.1-1.4-3.1-3.1l0,0
				C63.1,452.9,64.5,451.5,66.2,451.5z"/>
		</g>
		<g>
			<path class="st1" d="M77.9,439.3h9.6c1.7,0,3.1,1.4,3.1,3.1l0,0c0,1.7-1.4,3.1-3.1,3.1h-9.6c-1.7,0-3.1-1.4-3.1-3.1l0,0
				C74.8,440.7,76.2,439.3,77.9,439.3z"/>
		</g>
	</g>
	<g>
		<g>
			<path class="st1" d="M29,14.2h109.2c1.7,0,3.1-1.4,3.1-3.1l0,0c0-1.7-1.4-3.1-3.1-3.1H29c-1.7,0-3.1,1.4-3.1,3.1l0,0
				C25.8,12.8,27.2,14.2,29,14.2z"/>
		</g>
		<g>
			<path class="st1" d="M30.6,27.8h105.9c1.7,0,3.1-1.4,3.1-3.1l0,0c0-1.7-1.4-3.1-3.1-3.1H30.6c-1.7,0-3.1,1.4-3.1,3.1l0,0
				C27.5,26.4,28.9,27.8,30.6,27.8z"/>
		</g>
		<g>
			<path class="st1" d="M33.9,41.3h99.2c1.7,0,3.1-1.4,3.1-3.1l0,0c0-1.7-1.4-3.1-3.1-3.1H33.9c-1.7,0-3.1,1.4-3.1,3.1l0,0
				C30.8,39.9,32.2,41.3,33.9,41.3z"/>
		</g>
		<g>
			<path class="st1" d="M37.5,54.9h92.1c1.7,0,3.1-1.4,3.1-3.1l0,0c0-1.7-1.4-3.1-3.1-3.1H37.5c-1.7,0-3.1,1.4-3.1,3.1l0,0
				C34.4,53.5,35.8,54.9,37.5,54.9z"/>
		</g>
		<g>
			<path class="st1" d="M42.7,67.1h81.7c1.7,0,3.1-1.4,3.1-3.1l0,0c0-1.7-1.4-3.1-3.1-3.1H42.7c-1.7,0-3.1,1.4-3.1,3.1l0,0
				C39.6,65.7,41,67.1,42.7,67.1z"/>
		</g>
		<g>
			<path class="st1" d="M48.8,79.3h69.5c1.7,0,3.1-1.4,3.1-3.1l0,0c0-1.7-1.4-3.1-3.1-3.1H48.8c-1.7,0-3.1,1.4-3.1,3.1l0,0
				C45.7,77.9,47.1,79.3,48.8,79.3z"/>
		</g>
		<g>
			<path class="st1" d="M56.9,91.5h53.3c1.7,0,3.1-1.4,3.1-3.1l0,0c0-1.7-1.4-3.1-3.1-3.1H56.9c-1.7,0-3.1,1.4-3.1,3.1l0,0
				C53.8,90.1,55.2,91.5,56.9,91.5z"/>
		</g>
		<g>
			<path class="st1" d="M67.1,103.7H100c1.7,0,3.1-1.4,3.1-3.1l0,0c0-1.7-1.4-3.1-3.1-3.1H67.1c-1.7,0-3.1,1.4-3.1,3.1l0,0
				C64,102.3,65.4,103.7,67.1,103.7z"/>
		</g>
		<g>
			<path class="st1" d="M78.8,115.9h9.6c1.7,0,3.1-1.4,3.1-3.1l0,0c0-1.7-1.4-3.1-3.1-3.1h-9.6c-1.7,0-3.1,1.4-3.1,3.1l0,0
				C75.6,114.5,77,115.9,78.8,115.9z"/>
		</g>
	</g>
	<g>
		<g>
			<path class="st1" d="M29,291.4h109.2c1.7,0,3.1-1.4,3.1-3.1l0,0c0-1.7-1.4-3.1-3.1-3.1H29c-1.7,0-3.1,1.4-3.1,3.1l0,0
				C25.8,290,27.2,291.4,29,291.4z"/>
		</g>
		<g>
			<path class="st1" d="M30.6,305h105.9c1.7,0,3.1-1.4,3.1-3.1l0,0c0-1.7-1.4-3.1-3.1-3.1H30.6c-1.7,0-3.1,1.4-3.1,3.1l0,0
				C27.5,303.6,28.9,305,30.6,305z"/>
		</g>
		<g>
			<path class="st1" d="M33.9,318.5h99.2c1.7,0,3.1-1.4,3.1-3.1l0,0c0-1.7-1.4-3.1-3.1-3.1H33.9c-1.7,0-3.1,1.4-3.1,3.1l0,0
				C30.8,317.1,32.2,318.5,33.9,318.5z"/>
		</g>
		<g>
			<path class="st1" d="M37.5,332.1h92.1c1.7,0,3.1-1.4,3.1-3.1l0,0c0-1.7-1.4-3.1-3.1-3.1H37.5c-1.7,0-3.1,1.4-3.1,3.1l0,0
				C34.4,330.7,35.8,332.1,37.5,332.1z"/>
		</g>
		<g>
			<path class="st1" d="M42.7,344.3h81.7c1.7,0,3.1-1.4,3.1-3.1l0,0c0-1.7-1.4-3.1-3.1-3.1H42.7c-1.7,0-3.1,1.4-3.1,3.1l0,0
				C39.6,342.9,41,344.3,42.7,344.3z"/>
		</g>
		<g>
			<path class="st1" d="M48.8,356.5h69.5c1.7,0,3.1-1.4,3.1-3.1l0,0c0-1.7-1.4-3.1-3.1-3.1H48.8c-1.7,0-3.1,1.4-3.1,3.1l0,0
				C45.7,355.1,47.1,356.5,48.8,356.5z"/>
		</g>
		<g>
			<path class="st1" d="M56.9,368.7h53.3c1.7,0,3.1-1.4,3.1-3.1l0,0c0-1.7-1.4-3.1-3.1-3.1H56.9c-1.7,0-3.1,1.4-3.1,3.1l0,0
				C53.8,367.3,55.2,368.7,56.9,368.7z"/>
		</g>
		<g>
			<path class="st1" d="M67.1,380.9H100c1.7,0,3.1-1.4,3.1-3.1l0,0c0-1.7-1.4-3.1-3.1-3.1H67.1c-1.7,0-3.1,1.4-3.1,3.1l0,0
				C64,379.5,65.4,380.9,67.1,380.9z"/>
		</g>
		<g>
			<path class="st1" d="M78.8,393.1h9.6c1.7,0,3.1-1.4,3.1-3.1l0,0c0-1.7-1.4-3.1-3.1-3.1h-9.6c-1.7,0-3.1,1.4-3.1,3.1l0,0
				C75.6,391.7,77,393.1,78.8,393.1z"/>
		</g>
		<g>
			<path class="st1" d="M29,261.3h109.2c1.7,0,3.1,1.4,3.1,3.1l0,0c0,1.7-1.4,3.1-3.1,3.1H29c-1.7,0-3.1-1.4-3.1-3.1l0,0
				C25.8,262.7,27.2,261.3,29,261.3z"/>
		</g>
		<g>
			<path class="st1" d="M30.6,247.7h105.9c1.7,0,3.1,1.4,3.1,3.1l0,0c0,1.7-1.4,3.1-3.1,3.1H30.6c-1.7,0-3.1-1.4-3.1-3.1l0,0
				C27.5,249.1,28.9,247.7,30.6,247.7z"/>
		</g>
		<g>
			<path class="st1" d="M33.9,234.2h99.2c1.7,0,3.1,1.4,3.1,3.1l0,0c0,1.7-1.4,3.1-3.1,3.1H33.9c-1.7,0-3.1-1.4-3.1-3.1l0,0
				C30.8,235.6,32.2,234.2,33.9,234.2z"/>
		</g>
		<g>
			<path class="st1" d="M37.5,220.6h92.1c1.7,0,3.1,1.4,3.1,3.1l0,0c0,1.7-1.4,3.1-3.1,3.1H37.5c-1.7,0-3.1-1.4-3.1-3.1l0,0
				C34.4,222,35.8,220.6,37.5,220.6z"/>
		</g>
		<g>
			<path class="st1" d="M42.7,208.4h81.7c1.7,0,3.1,1.4,3.1,3.1l0,0c0,1.7-1.4,3.1-3.1,3.1H42.7c-1.7,0-3.1-1.4-3.1-3.1l0,0
				C39.6,209.8,41,208.4,42.7,208.4z"/>
		</g>
		<g>
			<path class="st1" d="M48.8,196.2h69.5c1.7,0,3.1,1.4,3.1,3.1l0,0c0,1.7-1.4,3.1-3.1,3.1H48.8c-1.7,0-3.1-1.4-3.1-3.1l0,0
				C45.7,197.6,47.1,196.2,48.8,196.2z"/>
		</g>
		<g>
			<path class="st1" d="M56.9,184h53.3c1.7,0,3.1,1.4,3.1,3.1l0,0c0,1.7-1.4,3.1-3.1,3.1H56.9c-1.7,0-3.1-1.4-3.1-3.1l0,0
				C53.8,185.4,55.2,184,56.9,184z"/>
		</g>
		<g>
			<path class="st1" d="M67.1,171.8H100c1.7,0,3.1,1.4,3.1,3.1l0,0c0,1.7-1.4,3.1-3.1,3.1H67.1c-1.7,0-3.1-1.4-3.1-3.1l0,0
				C64,173.2,65.4,171.8,67.1,171.8z"/>
		</g>
		<g>
			<path class="st1" d="M78.8,159.6h9.6c1.7,0,3.1,1.4,3.1,3.1l0,0c0,1.7-1.4,3.1-3.1,3.1h-9.6c-1.7,0-3.1-1.4-3.1-3.1l0,0
				C75.6,161,77,159.6,78.8,159.6z"/>
		</g>
		<g>
			<path class="st1" d="M29,273.5h109.2c1.7,0,3.1,1.4,3.1,3.1l0,0c0,1.7-1.4,3.1-3.1,3.1H29c-1.7,0-3.1-1.4-3.1-3.1l0,0
				C25.8,274.9,27.2,273.5,29,273.5z"/>
		</g>
	</g>
</g>
</svg>
