<?xml version="1.0" encoding="utf-8"?>
<!-- Generator: Adobe Illustrator 21.1.0, SVG Export Plug-In . SVG Version: 6.00 Build 0)  -->
<svg version="1.1" id="Layer_1" xmlns="http://www.w3.org/2000/svg" xmlns:xlink="http://www.w3.org/1999/xlink" x="0px" y="0px"
	 viewBox="0 0 105.3 123.8" style="enable-background:new 0 0 105.3 123.8;" xml:space="preserve">
<style type="text/css">
	.st0{fill:#242D3C;}
	.st1{fill:#004B8D;}
</style>
<g>
	<g>
		<path class="st0" d="M58.8,45.9c-1.3,0-2.3-1-2.3-2.3V8.7c0-1.1-0.4-2.1-1.2-2.9c-0.8-0.8-1.8-1.2-2.9-1.2h-0.9
			c-1.3,0-2.3-1-2.3-2.3s1-2.3,2.3-2.3h0.9c2.3,0,4.5,0.9,6.2,2.6c1.6,1.6,2.6,3.8,2.6,6.2v34.9C61.1,44.9,60.1,45.9,58.8,45.9z"/>
		<path class="st0" d="M3.7,45.9c-1.3,0-2.3-1-2.3-2.3V8.7c0-2.3,0.9-4.5,2.5-6.2C5.6,0.9,7.8,0,10.1,0H11c1.3,0,2.3,1,2.3,2.3
			s-1,2.3-2.3,2.3h-0.9C9,4.6,7.9,5,7.2,5.8C6.4,6.6,6,7.6,6,8.7v34.9C6,44.9,4.9,45.9,3.7,45.9z"/>
		<path class="st0" d="M92.3,123.8c-7.2,0-13-5.9-13-13c0-7.2,5.8-13,13-13c7.2,0,13,5.9,13,13C105.3,117.9,99.5,123.8,92.3,123.8z
			 M92.3,102.3c-4.7,0-8.5,3.8-8.5,8.5c0,4.7,3.8,8.5,8.5,8.5c4.7,0,8.5-3.8,8.5-8.5C100.8,106.1,97,102.3,92.3,102.3z"/>
		<path class="st0" d="M51.1,123.8c-12.2,0-22.2-10-22.2-22.2V81.8h4.6v19.8c0,9.7,7.9,17.6,17.6,17.6c9.7,0,17.6-7.9,17.6-17.6
			V54.3c0-7.1,5.8-12.9,12.9-12.9c7.1,0,12.9,5.8,12.9,12.9V100H90V54.3c0-4.6-3.7-8.3-8.3-8.3c-4.6,0-8.3,3.7-8.3,8.3v47.3
			C73.3,113.8,63.4,123.8,51.1,123.8z"/>
	</g>
	<g>
		<path class="st1" d="M31.2,74.9C14,74.9,0,60.9,0,43.6h7.3c0,13.2,10.7,23.9,23.9,23.9c13.2,0,23.9-10.7,23.9-23.9h7.3
			C62.5,60.9,48.5,74.9,31.2,74.9z"/>
		<rect x="27.6" y="71.2" class="st1" width="7.3" height="10.5"/>
	</g>
	<circle class="st1" cx="92.3" cy="110.7" r="5"/>
</g>
</svg>
