<?xml version="1.0" encoding="utf-8"?>
<!-- Generator: Adobe Illustrator 21.1.0, SVG Export Plug-In . SVG Version: 6.00 Build 0)  -->
<svg version="1.1" id="Layer_1" xmlns="http://www.w3.org/2000/svg" xmlns:xlink="http://www.w3.org/1999/xlink" x="0px" y="0px"
	 viewBox="0 0 213.2 214.3" style="enable-background:new 0 0 213.2 214.3;" xml:space="preserve">
<style type="text/css">
	.st0{fill:#004B8D;}
	.st1{fill:#FFFFFF;}
	.st2{fill:#2D2828;}
</style>
<path class="st0" d="M30,214.3h153.2c16.5,0,30-13.5,30-30V30c0-16.5-13.5-30-30-30L30,0C13.5,0,0,13.5,0,30l0,154.3
	C0,200.8,13.5,214.3,30,214.3z"/>
<g>
	<path class="st1" d="M160.6,27c-2.1-2.2-5.2-3.4-8.5-3.4H137v6.9h15.1c0.9,0,1.8,0.3,2.4,0.9c0.6,0.6,0.8,1.4,0.7,2.2l-9.9,48.1
		c-2.5,12-14.6,20.8-28.7,20.9c-14.2-0.1-26.3-8.8-28.7-20.9l-9.9-48.1c-0.2-0.8,0.1-1.6,0.7-2.2c0.6-0.6,1.4-0.9,2.3-0.9h15.1v-6.9
		H80.8c-3.3,0-6.4,1.2-8.5,3.4c-2.1,2.2-3,5-2.4,7.8l9.9,48.1c2.9,14.1,16.1,24.6,32.2,26.3v35.3c0,16.3-15.4,29.6-34.3,29.6h-1.3
		c-18.9,0-34.3-13.3-34.3-29.6v-2.4h-9.3v2.4c0,20.7,19.6,37.6,43.7,37.6h1.3c24.1,0,43.7-16.9,43.7-37.6v-35.4
		c15.9-1.9,28.9-12.3,31.7-26.3l9.9-48.1C163.6,32,162.7,29.2,160.6,27z"/>
	<ellipse class="st1" cx="36" cy="140.7" rx="14.7" ry="12.6"/>
	<ellipse class="st1" cx="36" cy="140.7" rx="10.3" ry="8.9"/>
	<path class="st1" d="M113.2,98.4h6.9c1.1,0,2.1,0.9,2.1,2.1v11.1c0,1.1-0.9,2.1-2.1,2.1h-6.9c-1.1,0-2.1-0.9-2.1-2.1v-11.1
		C111.1,99.3,112,98.4,113.2,98.4z"/>
	<ellipse class="st1" cx="94.4" cy="27" rx="7.2" ry="7.9"/>
	<ellipse class="st1" cx="138.3" cy="27" rx="7.2" ry="7.9"/>
	<ellipse class="st1" cx="96.8" cy="27" rx="4.1" ry="5.7"/>
	<ellipse class="st1" cx="135.9" cy="27" rx="4.1" ry="5.7"/>
</g>
<path class="st2" d="M177.9,196.5"/>
<path class="st2" d="M271.2,179.1"/>
<ellipse class="st0" cx="35.7" cy="140.1" rx="11.5" ry="10"/>
<ellipse class="st1" cx="35.7" cy="140.1" rx="8.5" ry="8"/>
<circle class="st1" cx="278.7" cy="163.6" r="5.5"/>
</svg>
