<?xml version="1.0" encoding="utf-8"?>
<!-- Generator: Adobe Illustrator 21.1.0, SVG Export Plug-In . SVG Version: 6.00 Build 0)  -->
<svg version="1.1" id="Layer_1" xmlns="http://www.w3.org/2000/svg" xmlns:xlink="http://www.w3.org/1999/xlink" x="0px" y="0px"
	 viewBox="0 0 213.2 214.3" style="enable-background:new 0 0 213.2 214.3;" xml:space="preserve">
<style type="text/css">
	.st0{fill:#004B8D;}
	.st1{fill:#FFFFFF;}
</style>
<path class="st0" d="M30,214.3h153.2c16.5,0,30-13.5,30-30V30c0-16.5-13.5-30-30-30L30,0C13.5,0,0,13.5,0,30l0,154.3
	C0,200.8,13.5,214.3,30,214.3z"/>
<path class="st0" d="M213.2,184.3v-62.7c-0.3-0.3-0.6-0.6-0.9-0.9c-0.7-0.7-1.4-1.4-2.1-2.1c-0.7-0.7-1.4-1.4-2.1-2.1
	c-0.7-0.7-1.4-1.4-2.1-2.1c-0.7-0.7-1.4-1.4-2.1-2.1c-0.7-0.7-1.4-1.4-2.1-2.1c-0.7-0.7-1.4-1.4-2.1-2.1c-0.7-0.7-1.4-1.4-2.1-2.1
	c-0.7-0.7-1.4-1.4-2.1-2.1c-0.7-0.7-1.4-1.4-2.1-2.1c-0.7-0.7-1.4-1.4-2.1-2.1c-0.7-0.7-1.4-1.4-2.1-2.1c-0.7-0.7-1.4-1.4-2.1-2.1
	c-0.7-0.7-1.4-1.4-2.1-2.1c-0.7-0.7-1.4-1.4-2.1-2.1c-0.7-0.7-1.4-1.4-2.1-2.1c-0.7-0.7-1.4-1.4-2.1-2.1c-0.7-0.7-1.4-1.4-2.1-2.1
	c-0.7-0.7-1.4-1.4-2.1-2.1c-0.7-0.7-1.4-1.4-2.1-2.1c-0.7-0.7-1.4-1.4-2.1-2.1c-0.7-0.7-1.4-1.4-2.1-2.1c-0.7-0.7-1.4-1.4-2.1-2.1
	c-0.7-0.7-1.4-1.4-2.1-2.1c-0.7-0.7-1.4-1.4-2.1-2.1c-0.7-0.7-1.4-1.4-2.1-2.1c-0.7-0.7-1.4-1.4-2.1-2.1c-0.7-0.7-1.4-1.4-2.1-2.1
	c-0.7-0.7-1.4-1.4-2.1-2.1c-0.7-0.7-1.4-1.4-2.1-2.1c-0.7-0.7-1.4-1.4-2.1-2.1c-0.7-0.7-1.4-1.4-2.1-2.1c-0.7-0.7-1.4-1.4-2.1-2.1
	c-3.2-3.4-6.9-6.5-10.8-9.1c-8.3-5.5-17.9-8.9-27.7-10.2c-27.2-3.5-55.8,8.4-66,35.1c-8.8,22.9-0.1,45.7,15.6,63.1
	c5.7,6.3,6.5,18,6.5,26v16.1c0,1.8,1,3.3,2.5,4c0.4,0.9,1.2,1.6,2.1,2.1c0.4,0.9,1.2,1.6,2.1,2.1c0.4,0.9,1.2,1.6,2.1,2.1
	c0.4,0.9,1.2,1.6,2.1,2.1c0.4,0.9,1.2,1.6,2.1,2.1c0.4,0.9,1.2,1.6,2.1,2.1c0.4,0.9,1.2,1.6,2.1,2.1c0.4,0.9,1.2,1.6,2.1,2.1
	c0.4,0.9,1.2,1.6,2.1,2.1c0.4,0.9,1.2,1.6,2.1,2.1c0.4,0.9,1.2,1.6,2.1,2.1c0.4,0.9,1.2,1.6,2.1,2.1c0.4,0.9,1.2,1.6,2.1,2.1
	c0.4,0.9,1.2,1.6,2.1,2.1c0.4,0.9,1.2,1.6,2.1,2.1c0.4,0.9,1.2,1.6,2.1,2.1c0.4,0.7,0.9,1.4,1.6,1.8h82.3
	C199.7,214.3,213.2,200.8,213.2,184.3z"/>
<path class="st1" d="M161.9,107.3c-1.3-5.1,1.3-11.6,0.8-16.9c-1.6-18.2-12.4-35-27.5-45.1c-8.3-5.5-17.9-8.9-27.7-10.2
	c-27.2-3.5-55.8,8.4-66,35.1c-8.8,22.9-0.1,45.7,15.6,63.1c5.7,6.3,6.5,18,6.5,26v16.1c0,2.5,2,4.5,4.5,4.5h58.2
	c2.4,0,4.3-1.8,4.5-4.2c0.2-3.2,0.6-5.9,0.6-5.9c1.2-5.2,5.7-9.4,15.1-7.9c9.9,1.6,16.2-1.4,16.8-8c0.2-2.2,0.3-20.8,0.3-20.8
	c0.5-0.3,3.6-0.9,8.1-1.9c3.5-0.8,4.8-5.2,2.2-7.7C163.6,113.1,162.2,108.3,161.9,107.3z M143.5,84.3c-1.4,1.8-3.1,2.2-3.9,2.2
	c-0.3,0-0.5,0.3-0.4,0.6c0.4,1.6,0.9,5.9-6.8,7.5c-7.2,1.6-11.6,7.2-14.4,10c-2.2,2.2-5.2,3.2-8.1,3.9c-3,0.7-6,1.3-8.4,3.4
	c-2.5,2.3-6.1,14.7-6.7,16.9c-0.1,0.2-0.2,0.3-0.4,0.3h-3.7c-0.2,0-0.4-0.1-0.4-0.4l-1.8-8.5c-0.1-0.4-17.5,1.1-18.8-6.7
	c0-0.3-0.3-0.4-0.6-0.3c-1.7,0.6-7,2.1-9.9-2.4c-2.1-3.2-1.5-6.2-1.2-7.2c0.1-0.2,0-0.4-0.3-0.5c-1.5-0.6-6.8-3.6-6.1-13.5
	c0.6-7.9,6-11.5,5.2-12.7c-2.2-3.5-0.3-9.4,4.2-10.7c0.2-0.1,0.3-0.2,0.3-0.4l0.2-2.1C61.9,56.6,71.5,52,78,55
	c0.3,0.1,0.6,0,0.6-0.3c0.8-2.6,2.5-3.3,2.9-3.5c2-1.1,4.6-1,6.7-0.1c0.2,0.1,0.4,0,0.5-0.1c0.6-0.6,3-2.7,7.1-2.7
	c4.1,0,6.2,2,7,2.6c0.1,0.1,0.3,0.1,0.5,0c0.9-0.5,4.3-2,7.7-0.8c2.6,0.9,4,3.2,4.5,4.1c0.1,0.2,0.3,0.3,0.5,0.2
	c1.2-0.3,5.4-1.1,9,0.5c3.7,1.7,4.9,4.1,5.2,5c0.1,0.2,0.2,0.3,0.4,0.3c0.8,0,3.1,0.2,4.4,1.4c2.4,2.1,2.2,3.7,1.9,4.4
	c-0.1,0.2,0,0.5,0.2,0.6c1.1,0.5,4.2,2.4,6.2,6.2C146,77.9,145,82.5,143.5,84.3z"/>
</svg>
