<?xml version="1.0" encoding="utf-8"?>
<!-- Generator: Adobe Illustrator 21.1.0, SVG Export Plug-In . SVG Version: 6.00 Build 0)  -->
<svg version="1.1" id="Layer_1" xmlns="http://www.w3.org/2000/svg" xmlns:xlink="http://www.w3.org/1999/xlink" x="0px" y="0px"
	 viewBox="0 0 421.5 97.2" style="enable-background:new 0 0 421.5 97.2;" xml:space="preserve">
<style type="text/css">
	.st0{clip-path:url(#SVGID_2_);fill:#FFFFFF;}
	.st1{clip-path:url(#SVGID_4_);fill:#004B8D;}
	.st2{fill:none;stroke:#3F5588;stroke-width:2;}
	.st3{fill:#004B8D;}
</style>
<g>
	<g>
		<g>
			<defs>
				<rect id="SVGID_1_" x="2" y="-2" width="481.9" height="123.4"/>
			</defs>
			<clipPath id="SVGID_2_">
				<use xlink:href="#SVGID_1_"  style="overflow:visible;"/>
			</clipPath>
			<path class="st0" d="M48,2.1C22.1,2.5,1.6,23.8,2,49.6c0.5,25.9,21.8,46.4,47.6,46C75.4,95.1,96,73.8,95.5,48
				C95.1,22.2,73.8,1.6,48,2.1"/>
		</g>
	</g>
	<g>
		<g>
			<defs>
				<rect id="SVGID_3_" x="2" y="-2" width="481.9" height="123.4"/>
			</defs>
			<clipPath id="SVGID_4_">
				<use xlink:href="#SVGID_3_"  style="overflow:visible;"/>
			</clipPath>
			<path class="st1" d="M68.7,37.8c-1.8,3.2-19.9,8.5-25.4,10.1c0,0-6.6,2.1-9.4,3.6c-2.7,1.5-4.1,3.2-4.1,3.2l-1.9,2.4L28,49l0.1-3
				c0.1-0.5,0.4-1.4,2.2-3c2.5-2.1,5.4-3,5.5-3c0.2-0.1,19.3-5.5,27.6-9.3c0.4-0.2,1.4-0.6,2.3-1.4c0.7-0.6,0.8-1.3,0.8-1.3v-0.4
				c0,0-0.1-0.7-0.8-1.3c-0.9-0.8-1.8-1.2-2.2-1.4C56.9,22,43.8,18,38.4,16.4L35,14.9l2.4-1c2.9-1.2,6.9-2.6,11.9-4.2l0.3-0.1l2,0.6
				c15.8,5.2,16.7,6.8,17.1,7.5c1.9,3.5,2,9.5,2,9.8V28C70.7,28.3,70.6,34.3,68.7,37.8 M63.5,46.1c2.7-1.5,4.1-3.2,4.1-3.2l1.9-2.4
				l-0.1,8.2l-0.1,3c-0.1,0.5-0.4,1.4-2.2,3c-2.5,2.1-5.4,3-5.5,3C61.4,57.8,42.3,63.2,34,67c-0.4,0.2-1.4,0.6-2.3,1.4
				c-0.7,0.6-0.8,1.3-0.8,1.3v0.4c0,0,0.1,0.7,0.8,1.3c0.9,0.8,1.8,1.2,2.2,1.4c6.6,2.9,19.7,6.9,25,8.5l3.5,1.4l-2.4,1
				c-2.9,1.2-6.9,2.6-11.9,4.2L47.8,88l-2-0.6c-15.8-5.2-16.7-6.8-17.1-7.5c-1.9-3.5-2-9.5-2-9.8v-0.5c0-0.3,0-6.3,2-9.8 M61.6,3.8
				L60,4.3c-4.3,1.3-19,5.7-26.1,8.8c-0.4,0.2-1.4,0.6-2.3,1.4c-0.7,0.6-0.8,1.3-0.8,1.3v0.4c0,0,0.1,0.7,0.8,1.3
				c0.9,0.8,1.8,1.2,2.2,1.4c6.6,2.9,19.7,6.9,25.1,8.5l3.6,1.4l-2.4,1c-2.9,1.2-6.9,2.6-11.9,4.2l-0.3,0.1l-2-0.6
				c-15.8-5.2-16.7-6.8-17.1-7.5c-1.9-3.5-2-9.5-2-9.8v-0.5c0-0.3,0-5.6,1.6-9.1C12.5,14.4,1.7,30.8,2,49.6
				c0.4,21.1,14.6,38.7,33.9,44.2l1.5-0.4c4.3-1.3,19-5.7,26.1-8.8c0.4-0.2,1.4-0.6,2.3-1.4c0.7-0.6,0.8-1.3,0.8-1.3v-0.4
				c0,0-0.1-0.7-0.8-1.3c-0.9-0.8-1.8-1.2-2.2-1.4c-6.3-2.8-18.4-6.5-25.1-8.5L35,68.7l2.4-1c3-1.2,7-2.6,11.9-4.2l0.3-0.1l2,0.6
				c15.8,5.2,16.7,6.8,17.1,7.5c1.9,3.5,2,9.5,2,9.8v0.5c0,0.3,0,5.6-1.6,9.1C85,83.3,95.9,66.8,95.5,48
				C95.2,26.9,80.9,9.3,61.6,3.8"/>
		</g>
	</g>
</g>
<line class="st2" x1="133.1" y1="5.5" x2="133.1" y2="88.1"/>
<path class="st3" d="M158.1,9c-1.2-0.7-2.9-1.4-4.4-1.4c-2.5,0-3.9,1.1-3.9,2.6c0,1.4,1.6,2.4,4.8,4.2c3.5,1.9,5.5,3.7,5.5,6.2
	c0,3.1-3.8,5.1-7.9,5.1c-2.4,0-5.3-0.7-7.1-2l1.6-1.6c1.5,0.8,3.1,1.7,5.5,1.7c2.5,0,4.4-1,4.4-3.2c0-2.5-3.8-4-5.9-5.2
	c-2.1-1.3-4.5-2.5-4.5-5.2c0-2.6,3.3-4.6,7.2-4.6c2.6,0,4.8,0.7,6.3,1.9L158.1,9z"/>
<path class="st3" d="M169.9,15.4c0-5.5,5.4-9.7,12.7-9.7s12.7,4.3,12.7,9.7c0,5.8-4.9,10.4-12.7,10.4S169.9,21.2,169.9,15.4z
	 M191.4,15.4c0-3.6-2.5-7.8-8.8-7.8s-8.8,4.1-8.8,7.8c0,3.8,2.2,8.5,8.8,8.5C189.2,23.8,191.4,19.2,191.4,15.4z"/>
<path class="st3" d="M228.4,25.5h-2.8c-5.5-5.1-14.9-13.8-16.5-15.5H209v15.5h-2.9V6h2.6c5.6,5.1,14.9,13.6,16.6,15.5h0.1V6h2.9
	L228.4,25.5L228.4,25.5z"/>
<path class="st3" d="M240.6,25.5V6h3.5v19.5H240.6z"/>
<path class="st3" d="M275.5,9.3c-1.2-0.8-3.9-1.7-6.6-1.7c-6.3,0-10,3.5-10,8c0,4.9,4.4,8.2,10,8.2c2.8,0,4.9-0.7,6.4-1.4l1.4,1.6
	c-1.7,0.9-4.7,1.8-8,1.8c-9,0-13.6-4.8-13.6-10.1c0-4.9,5-10,14.1-10c3.6,0,6.2,1,7.8,2L275.5,9.3z"/>
<path class="st3" d="M146.3,37.3h7.2c4.1,0,7.3,1.6,7.3,5c0,2.9-1.8,4.5-4.2,5.7l6.3,8.3l-3.5,0.8l-5.9-8.4h-3.7v8.1h-3.5
	L146.3,37.3L146.3,37.3z M149.8,46.8h2c4.5,0,5.3-2.6,5.3-4.2c0-2.4-2-3.3-4.3-3.3h-3V46.8z"/>
<path class="st3" d="M185,39.2h-9v6.3h8.8v1.9H176v7.4h10.5v1.9h-14V37.3H185V39.2z"/>
<path class="st3" d="M209.1,39.2h-9v7.4h8.8v1.9h-8.8v8.2h-3.5V37.3h12.5V39.2z"/>
<path class="st3" d="M232.7,39.2h-9v6.3h8.8v1.9h-8.8v7.4h10.5v1.9h-14V37.3h12.5V39.2z"/>
<path class="st3" d="M244.3,37.3h7.2c4.1,0,7.3,1.6,7.3,5c0,2.9-1.8,4.5-4.2,5.7l6.3,8.3l-3.5,0.8l-5.9-8.4h-3.7v8.1h-3.5V37.3z
	 M247.9,46.8h2c4.5,0,5.3-2.6,5.3-4.2c0-2.4-2-3.3-4.3-3.3h-3V46.8z"/>
<path class="st3" d="M283.1,39.2h-9v6.3h8.8v1.9h-8.8v7.4h10.5v1.9h-14V37.3h12.5V39.2z"/>
<path class="st3" d="M316.9,56.8h-2.8c-5.5-5.1-14.9-13.8-16.5-15.5h-0.1v15.5h-2.9V37.3h2.6c5.6,5.1,14.9,13.6,16.6,15.5h0.1V37.3
	h2.9L316.9,56.8L316.9,56.8z"/>
<path class="st3" d="M348.3,40.6c-1.2-0.8-3.9-1.7-6.6-1.7c-6.3,0-10,3.5-10,8c0,4.9,4.4,8.2,10,8.2c2.8,0,4.9-0.7,6.4-1.4l1.4,1.6
	c-1.7,0.9-4.7,1.8-8,1.8c-9,0-13.6-4.8-13.6-10.1c0-4.9,5-10,14.1-10c3.6,0,6.2,1,7.8,2L348.3,40.6z"/>
<path class="st3" d="M372.5,39.2h-9v6.3h8.8v1.9h-8.8v7.4H374v1.9h-14V37.3h12.5V39.2z"/>
<g>
	<path class="st3" d="M146.3,68.6h3.5v17.5h10.5V88h-14V68.6z"/>
	<path class="st3" d="M179.6,68.6l9.4,19.5h-4l-2.6-5.7h-9.7l-2.7,5.7h-3.4L177,68.6H179.6z M181.6,80.4c-1.3-2.7-2.5-5.4-3.8-8.9
		h-0.1c-1.3,3.5-2.6,6.2-4,8.9H181.6z"/>
	<path class="st3" d="M198.1,88.1V68.6h7.9c3.8,0,6.6,1.4,6.6,4c0,3.2-3.2,4.7-5.2,5v0.1c3.3,0.1,6.7,1.7,6.7,4.8
		c0,3.3-3.6,5.7-8.9,5.7L198.1,88.1L198.1,88.1z M201.6,77h1.7c3,0,5.7-1.6,5.7-3.7c0-1.7-1.6-2.7-4.5-2.7h-3V77H201.6z M201.6,86.2
		h3.4c2.9,0,5.3-1.2,5.3-3.5c0-2.7-3-3.7-5.9-3.7h-2.8V86.2z"/>
	<path class="st3" d="M223.7,78c0-5.5,5.4-9.7,12.7-9.7s12.7,4.3,12.7,9.7c0,5.8-4.9,10.4-12.7,10.4C228.6,88.4,223.7,83.8,223.7,78
		z M245.2,78c0-3.6-2.5-7.8-8.8-7.8s-8.8,4.1-8.8,7.8c0,3.8,2.2,8.5,8.8,8.5S245.2,81.8,245.2,78z"/>
	<path class="st3" d="M260,68.6h7.2c4.1,0,7.3,1.6,7.3,5c0,2.9-1.8,4.5-4.2,5.7l6.3,8.3l-3.5,0.8l-5.9-8.4h-3.7v8.1H260V68.6z
		 M263.5,78.1h2c4.5,0,5.3-2.6,5.3-4.2c0-2.4-2-3.3-4.3-3.3h-3V78.1z"/>
	<path class="st3" d="M296.1,68.6l9.4,19.5h-4.1l-2.6-5.7h-9.7l-2.7,5.7H283l10.3-19.5H296.1z M298,80.4c-1.3-2.7-2.5-5.4-3.8-8.9
		h-0.1c-1.3,3.5-2.6,6.2-4,8.9H298z"/>
	<path class="st3" d="M317.8,88.1V70.6h-8.1v-1.9h19.8v1.9h-8.1v17.5H317.8z"/>
	<path class="st3" d="M337.5,78c0-5.5,5.4-9.7,12.7-9.7s12.7,4.3,12.7,9.7c0,5.8-4.8,10.4-12.7,10.4S337.5,83.8,337.5,78z M359,78
		c0-3.6-2.5-7.8-8.8-7.8s-8.8,4.1-8.8,7.8c0,3.8,2.2,8.5,8.8,8.5S359,81.8,359,78z"/>
	<path class="st3" d="M373.8,68.6h7.2c4.1,0,7.3,1.6,7.3,5c0,2.9-1.8,4.5-4.2,5.7l6.3,8.3l-3.5,0.8L381,80h-3.7v8.1h-3.5V68.6z
		 M377.3,78.1h2c4.5,0,5.3-2.6,5.3-4.2c0-2.4-2-3.3-4.3-3.3h-3V78.1z"/>
	<path class="st3" d="M404.5,88.1v-8.4l-7.6-10.8l3.8-0.6l6.1,9.2l6.7-9.2l3.1,0.3l-8.5,11V88L404.5,88.1L404.5,88.1z"/>
</g>
</svg>
