<?xml version="1.0" encoding="utf-8"?>
<!-- Generator: Adobe Illustrator 21.1.0, SVG Export Plug-In . SVG Version: 6.00 Build 0)  -->
<svg version="1.1" id="Layer_1" xmlns="http://www.w3.org/2000/svg" xmlns:xlink="http://www.w3.org/1999/xlink" x="0px" y="0px"
	 viewBox="0 0 216.8 623.1" style="enable-background:new 0 0 216.8 623.1;" xml:space="preserve">
<style type="text/css">
	.st0{fill:#5d9fd1;}
</style>
<path class="st0" d="M20.3,47.1c1.7,0,3.5-0.1,5.2-0.2v367.7c0,14.6-0.4,29.6-0.7,44c-0.7,29.4-1.4,57.2,0.8,83.2
	c3.2,38.2,28.5,70.5,61.5,78.7c7.4,1.8,14.8,2.8,22,2.8c22.1,0,42.6-9,57.8-25.3c13.7-14.7,22.3-34.1,24.3-54.6
	c2.5-26.8,1.7-56.4,0.9-85c-0.4-14.4-0.8-29.2-0.8-43.7v-368c0.9,0,1.7,0.1,2.7,0.1c2.2,0.1,6.8,0.2,6.8,0.2c2,0,3.8-0.1,5.4-0.3
	c6.1-0.7,10.6-5.8,10.6-11.9V16.6c0.6-13.9-9.6-16.1-11.7-16.4C204.5,0,203.9,0,203.3,0H12C5.4,0,0,5.4,0,12v19.8
	c0,1.8,0.4,3.7,1.2,5.3C3.5,41.7,8.6,47.1,20.3,47.1z M141.3,554.4c-6.3,14.8-21.1,20-32.8,20c-11.8,0-26.7-5.3-33-20
	c-5.2-12.1-4.5-31.2-3.8-51.4c0.3-7.5,0.5-15.3,0.5-23.2c0-20.5-0.1-41.2-0.1-61.3c-0.2-61.6-0.4-120.1,1.2-176.2h71.3v238.9
	c0,7.5,0.2,14.9,0.5,22.2C145.7,523.5,146.3,542.6,141.3,554.4z"/>
</svg>
