<?xml version="1.0" encoding="utf-8"?>
<!-- Generator: Adobe Illustrator 21.1.0, SVG Export Plug-In . SVG Version: 6.00 Build 0)  -->
<svg version="1.1" id="Layer_1" xmlns="http://www.w3.org/2000/svg" xmlns:xlink="http://www.w3.org/1999/xlink" x="0px" y="0px"
	 viewBox="0 0 465.9 506.3" style="enable-background:new 0 0 465.9 506.3;" xml:space="preserve">
<style type="text/css">
	.st0{fill-rule:evenodd;clip-rule:evenodd;fill:#004B8D;}
	.st1{fill-rule:evenodd;clip-rule:evenodd;fill:#6E5F4C;}
	.st2{fill-rule:evenodd;clip-rule:evenodd;fill:#E31937;}
	.st3{fill:#6E5F4C;}
	.st4{fill-rule:evenodd;clip-rule:evenodd;fill:#939598;}
</style>
<g>
	<g>
		<path class="st0" d="M145.2,434.4h236.3c3.3,0,6,2.7,6,6v20.3H139.1v-20.3C139.1,437.1,141.8,434.4,145.2,434.4z"/>
	</g>
	<g>
		<path class="st0" d="M80.1,465.8h366.3c4,0,7.3,3.3,7.3,7.3V499c0,4-3.3,7.3-7.3,7.3H80.1c-4,0-7.3-3.3-7.3-7.3v-25.9
			C72.9,469.1,76.2,465.8,80.1,465.8z"/>
	</g>
	<g>
		<path class="st0" d="M376,68.4l29.1,27.7c2.8,2.7,3,7.2,0.3,10.1l-32.7,34.4c-6-5.7-14.1-9.2-23-9.2c-18.4,0-33.4,15-33.4,33.4
			c0,9.5,4,18.1,10.4,24.2l-32.7,34.4c-2.7,2.8-7.2,3-10.1,0.3l-35-33.3c-2.8-2.7-3-7.2-0.3-10.1L360,63.1c2.5-2.6,6.6-2.9,9.4-0.8
			L256.7,180.9c-1.7,1.8-1.6,4.6,0.2,6.3h0c1.8,1.7,4.6,1.6,6.3-0.2l60.7-63.8l0.1-0.1L376,68.4z"/>
	</g>
	<g>
		<path class="st0" d="M226.6,202.9l1.2,1.2l-8.5,8.9c-1.7,1.8-1.6,4.6,0.2,6.3l0,0c1.8,1.7,4.6,1.6,6.3-0.2l8.5-8.9l37.9,36
			c1.6,1.5,1.7,4,0.1,5.6l-11.7,12.3c-1.5,1.6-4,1.7-5.6,0.1L209.4,221c-1.6-1.5-1.7-4-0.1-5.6L221,203
			C222.5,201.4,225,201.4,226.6,202.9z"/>
	</g>
	<g>
		
			<rect x="250.5" y="192.1" transform="matrix(0.689 -0.7247 0.7247 0.689 -76.2016 253.985)" class="st1" width="14.8" height="47.4"/>
	</g>
	<g>
		<path class="st0" d="M382,40.6l45.1,42.9c1.7,1.6,4.4,1.6,6.1-0.2l31.5-33.2c1.6-1.7,1.6-4.4-0.2-6.1L427.1,8.5l-25.1,26.4
			c-1.7,1.8-4.5,1.9-6.3,0.2v0c-1.8-1.7-1.9-4.5-0.2-6.3l25.1-26.4l-1.2-1.1c-1.7-1.6-4.4-1.6-6.1,0.2l-31.5,33.2
			C380.2,36.2,380.3,38.9,382,40.6z"/>
	</g>
	<g>
		
			<rect x="388.7" y="47.1" transform="matrix(0.6891 -0.7247 0.7247 0.6891 71.8891 309.0558)" class="st1" width="14.8" height="47.4"/>
	</g>
	<g>
		<path class="st2" d="M375.8,380.1c-8.1,8-17.1,15.2-26.7,21.3c1.1-1.8,1.4-3.6,0.8-5.2c-1.5-3.7-7.4-4.8-13.4-2.4
			c-5.9,2.3-9.5,7.2-8.1,10.9c1.1,2.7,4.7,4,8.8,3.6c-22.1,11.6-47.3,18.1-74,18.1c-61.4,0-114.7-34.6-141.6-85.3h66.8
			c19.1,19.1,45.5,31,74.7,31c58.4,0,105.7-47.3,105.7-105.7c0-23.9-7.9-45.9-21.3-63.6c0.4,0,0.8,0,1.1,0
			c15.6,0,29.1-9.3,35.2-22.6c39.2,53.2,41.1,133.9-20.9,196.5C344.4,395.4,360.1,395.3,375.8,380.1z"/>
	</g>
	<g>
		<path class="st3" d="M389.9,163.3c11.7,14.3,20.9,30.6,27.2,48.3c6.1,17.1,9.4,35.5,9.4,54.6c0,45.1-18.3,85.9-47.8,115.4
			c-29.5,29.5-70.3,47.8-115.4,47.8c-30.8,0-59.6-8.5-84.1-23.3c-25.4-15.3-46.3-37.4-60.2-63.7l-2.5-4.6h5.3h66.8h1.3l0.9,0.9
			c9.5,9.5,20.8,17.1,33.3,22.3c12.1,5,25.3,7.8,39.2,7.8c28.3,0,53.9-11.5,72.5-30c18.5-18.6,30-44.2,30-72.5
			c0-11.4-1.9-22.3-5.3-32.6c-3.5-10.6-8.8-20.4-15.4-29.2l-3.9-5.2l6.5,0.1l0.6,0l0.5,0v0c9.6,0,18.3-3.8,24.7-10
			c6.4-6.2,10.5-14.8,10.8-24.3l0.3-8.4L389.9,163.3L389.9,163.3z M411.2,213.7c-5.2-14.6-12.5-28.3-21.6-40.5
			c-1.8,8.1-6,15.3-11.7,20.9c-6.4,6.2-14.9,10.4-24.2,11.5c5.4,8,9.8,16.8,12.9,26.2c3.6,10.9,5.6,22.5,5.6,34.6
			c0,30.1-12.2,57.3-31.9,77c-19.7,19.7-46.9,31.9-77,31.9c-14.7,0-28.8-2.9-41.6-8.3c-12.9-5.4-24.6-13.1-34.4-22.7h-60.2
			c13.3,23.2,32.4,42.8,55.4,56.6c23.6,14.2,51.3,22.4,80.9,22.4c43.3,0,82.5-17.6,110.9-45.9c28.4-28.4,46-67.6,46-110.9
			C420.2,247.8,417,230.1,411.2,213.7z"/>
	</g>
	<g>
		<path class="st4" d="M349.7,146.9c1.1,0,2.2,0.1,3.3,0.3c-2.6,1.7-4.3,4.6-4.3,7.9c0,5.2,4.2,9.4,9.4,9.4c3.8,0,7.1-2.3,8.5-5.5
			c0.6,1.8,1,3.8,1,5.8c0,9.9-8,17.9-17.9,17.9c-9.9,0-17.9-8-17.9-17.9C331.7,154.9,339.8,146.9,349.7,146.9z"/>
	</g>
	<g>
		<path class="st3" d="M349.7,135c8.2,0,15.7,3.3,21.1,8.7c5.4,5.4,8.7,12.8,8.7,21.1c0,8.2-3.3,15.7-8.7,21.1
			c-5.4,5.4-12.8,8.7-21.1,8.7c-8.2,0-15.7-3.3-21.1-8.7c-5.4-5.4-8.7-12.8-8.7-21.1c0-8.2,3.3-15.7,8.7-21.1
			C334,138.4,341.4,135,349.7,135L349.7,135z M366.2,148.3c-4.2-4.2-10.1-6.9-16.6-6.9c-6.5,0-12.3,2.6-16.6,6.9
			c-4.2,4.2-6.9,10.1-6.9,16.6c0,6.5,2.6,12.3,6.9,16.6c4.2,4.2,10.1,6.9,16.6,6.9c6.5,0,12.3-2.6,16.6-6.9
			c4.2-4.2,6.9-10.1,6.9-16.6C373.1,158.3,370.5,152.5,366.2,148.3z"/>
	</g>
	<g>
		<path class="st1" d="M6.2,332.4h297.9c3.4,0,6.2-2.8,6.2-6.2v-2.8c0-3.4-2.8-6.2-6.2-6.2H6.2c-3.4,0-6.2,2.8-6.2,6.2v2.8
			C0,329.6,2.8,332.4,6.2,332.4z"/>
	</g>
</g>
</svg>
