<?xml version="1.0" encoding="utf-8"?>
<!-- Generator: Adobe Illustrator 21.1.0, SVG Export Plug-In . SVG Version: 6.00 Build 0)  -->
<svg version="1.1" id="Layer_1" xmlns="http://www.w3.org/2000/svg" xmlns:xlink="http://www.w3.org/1999/xlink" x="0px" y="0px"
	 viewBox="0 0 488.1 518.2" style="enable-background:new 0 0 488.1 518.2;" xml:space="preserve">
<style type="text/css">
	.st0{fill:#004B8D;}
	.st1{fill:#E31937;}
</style>
<g>
	<g>
		<g>
			<path class="st0" d="M205.1,198.7c6.3,0,12.4,1,18,3c-10.5,1.7-18.5,10.8-18.5,21.8c0,12.2,9.9,22.1,22.1,22.1
				c12.2,0,22.1-9.9,22.1-22.1c0-1.4-0.1-2.8-0.4-4.2c7.8,9.6,12.6,21.9,12.6,35.3c0,30.9-25,55.9-55.9,55.9
				c-5.3,0-10.4-0.7-15.2-2.1l6.6-14.2c0.9-12.2-12.3-19.1-22.4-15.4l-12,11.6c-8.1-9.7-13-22.2-13-35.8
				C149.2,223.7,174.2,198.7,205.1,198.7z"/>
		</g>
		<g>
			<path class="st1" d="M205.1,182.9c19.8,0,37.7,8,50.7,21c13,13,21,30.9,21,50.7s-8,37.7-21,50.7s-30.9,21-50.7,21
				c-7.6,0-15-1.2-21.9-3.4l3.9-8.4c5.7,1.7,11.7,2.6,18,2.6c17.3,0,32.9-7,44.2-18.3s18.3-26.9,18.3-44.2s-7-32.9-18.3-44.2
				c-11.3-11.3-26.9-18.3-44.2-18.3s-32.9,7-44.2,18.3s-18.3,26.9-18.3,44.2c0,15.4,5.6,29.5,14.8,40.4l-6.6,6.4
				c-10.8-12.6-17.4-28.9-17.4-46.8c0-19.8,8-37.7,21-50.7C167.4,191,185.3,182.9,205.1,182.9z"/>
		</g>
	</g>
	<g>
		<g>
			<path class="st0" d="M406.7,188.1c4.6,0,9.1,0.8,13.2,2.2c-7.7,1.3-13.6,7.9-13.6,16c0,9,7.3,16.2,16.2,16.2
				c9,0,16.2-7.3,16.2-16.2c0-1-0.1-2.1-0.3-3.1c5.7,7.1,9.2,16.1,9.2,25.9c0,22.6-18.3,41-41,41c-15,0-28.1-8-35.2-20l7.5-1.2
				c7.6-5.6,5.4-17.7-2.2-20.9l-11-0.4C366.7,205.6,384.6,188.1,406.7,188.1z"/>
		</g>
		<g>
			<path class="st1" d="M406.7,176.6c14.5,0,27.6,5.9,37.1,15.4s15.4,22.6,15.4,37.1s-5.9,27.6-15.4,37.1s-22.6,15.4-37.1,15.4
				s-27.6-5.9-37.1-15.4c-4.1-4.1-7.5-8.9-10.1-14.2l7-1.2c2.1,3.9,4.8,7.5,7.9,10.6c8.3,8.3,19.7,13.4,32.4,13.4
				c12.6,0,24.1-5.1,32.4-13.4c8.3-8.3,13.4-19.7,13.4-32.4c0-12.6-5.1-24.1-13.4-32.4c-8.3-8.3-19.7-13.4-32.4-13.4
				c-12.6,0-24.1,5.1-32.4,13.4c-7.9,7.9-12.9,18.6-13.4,30.5l-6.7-0.3c0.6-13.6,6.3-26,15.3-35
				C379.1,182.5,392.2,176.6,406.7,176.6z"/>
		</g>
	</g>
	<g>
		<g>
			<path class="st0" d="M62.4,115.5c3.7,0,7.3,0.6,10.6,1.7c-6.2,1-10.9,6.4-10.9,12.8c0,7.2,5.8,13,13,13s13-5.8,13-13
				c0-0.8-0.1-1.7-0.2-2.5c4.6,5.7,7.4,12.9,7.4,20.8c0,4.6-0.9,9-2.7,13l-9.1-4.8c-7.4-1-14.6,7.5-11.2,15.3l6.2,5.1
				c-4.8,2.7-10.3,4.2-16.1,4.2c-18.2,0-32.9-14.7-32.9-32.9C29.5,130.2,44.2,115.5,62.4,115.5z"/>
		</g>
		<g>
			<path class="st1" d="M62.4,106.2c11.6,0,22.2,4.7,29.8,12.3c7.6,7.6,12.3,18.2,12.3,29.8c0,6.2-1.3,12-3.7,17.3l-4.8-2.5
				c2-4.5,3.1-9.5,3.1-14.8c0-10.1-4.1-19.3-10.8-26c-6.6-6.6-15.8-10.8-26-10.8c-10.1,0-19.3,4.1-26,10.8
				c-6.7,6.6-10.8,15.8-10.8,26c0,10.1,4.1,19.3,10.8,26c6.6,6.6,15.8,10.8,26,10.8c7.1,0,13.7-2,19.3-5.5l4.4,3.6
				c-6.7,4.6-14.9,7.3-23.7,7.3c-11.6,0-22.2-4.7-29.8-12.3S20.2,160,20.2,148.4s4.7-22.2,12.3-29.8C40.2,111,50.7,106.2,62.4,106.2
				z"/>
		</g>
	</g>
	<g>
		<g>
			<path class="st0" d="M92.4,353.7c8.1,0,15.9,1.3,23.2,3.8c-13.5,2.2-23.9,14-23.9,28.1c0,15.8,12.8,28.5,28.5,28.5
				c15.8,0,28.5-12.8,28.5-28.5c0-1.8-0.2-3.6-0.5-5.4c10.1,12.4,16.2,28.2,16.2,45.5c0,39.8-32.3,72.1-72.1,72.1
				s-72.1-32.3-72.1-72.1C20.3,386,52.6,353.7,92.4,353.7z"/>
		</g>
		<g>
			<path class="st1" d="M92.4,333.4c25.5,0,48.6,10.3,65.3,27.1c16.7,16.7,27.1,39.8,27.1,65.3s-10.3,48.6-27.1,65.3
				c-16.7,16.7-39.8,27.1-65.3,27.1s-48.6-10.3-65.3-27.1C10.3,474.4,0,451.3,0,425.8s10.3-48.6,27.1-65.3
				C43.8,343.7,66.9,333.4,92.4,333.4L92.4,333.4z M149.4,368.8c-14.6-14.6-34.7-23.6-57-23.6c-22.2,0-42.4,9-57,23.6
				s-23.6,34.7-23.6,57c0,22.2,9,42.4,23.6,57s34.7,23.6,57,23.6s42.4-9,57-23.6s23.6-34.7,23.6-57S164,383.4,149.4,368.8z"/>
		</g>
	</g>
	<g>
		<path class="st1" d="M176.6,282.8c6.7-2.4,15.5,2.1,14.9,10.2l-31.6,59.7c-8.8-8.1-19.1-14.7-30.3-19.2L176.6,282.8z"/>
	</g>
	<g>
		<path class="st1" d="M374.2,231.7c5,2.1,6.5,10.1,1.5,13.8l-92,15.4c0.2-2.1,0.3-4.2,0.3-6.3c0-9.4-1.6-18.4-4.7-26.8L374.2,231.7
			z"/>
	</g>
	<g>
		<path class="st1" d="M83.3,159.5c-5.4-0.7-10.7,5.5-8.2,11.2l59.3,49.1c4.5-9.1,10.6-17.2,18.1-23.9L83.3,159.5z"/>
	</g>
	<g>
		<g>
			<path class="st0" d="M314.1,354.9c6.4,0,12.6,1.1,18.4,3c-10.7,1.8-18.9,11.1-18.9,22.3c0,12.5,10.1,22.6,22.6,22.6
				s22.6-10.1,22.6-22.6c0-1.5-0.1-2.9-0.4-4.3c8,9.8,12.8,22.4,12.8,36.1c0,31.5-25.6,57.1-57.1,57.1s-57.1-25.5-57.1-57
				C257,380.5,282.6,354.9,314.1,354.9z"/>
		</g>
		<g>
			<path class="st1" d="M314.1,338.8c20.2,0,38.5,8.2,51.8,21.4c13.3,13.3,21.4,31.6,21.4,51.8s-8.2,38.5-21.4,51.8
				c-13.3,13.3-31.6,21.4-51.8,21.4c-20.2,0-38.5-8.2-51.8-21.4c-13.2-13.3-21.4-31.6-21.4-51.8s8.2-38.5,21.4-51.8
				C275.6,347,293.9,338.8,314.1,338.8L314.1,338.8z M359.3,366.9c-11.6-11.6-27.5-18.7-45.1-18.7s-33.6,7.1-45.1,18.7
				c-11.6,11.6-18.7,27.5-18.7,45.1s7.1,33.6,18.7,45.1c11.6,11.6,27.5,18.7,45.1,18.7s33.6-7.1,45.1-18.7S378,429.6,378,412
				S370.8,378.5,359.3,366.9z"/>
		</g>
	</g>
	<g>
		<g>
			<path class="st0" d="M250.5,61.1c4.6,0,9.1,0.8,13.2,2.2c-7.7,1.3-13.6,7.9-13.6,16c0,9,7.3,16.2,16.2,16.2
				c9,0,16.2-7.3,16.2-16.2c0-1-0.1-2.1-0.3-3.1c5.7,7.1,9.2,16.1,9.2,25.9c0,22.6-18.3,41-41,41c-22.6,0-41-18.3-41-41
				C209.5,79.4,227.9,61.1,250.5,61.1z"/>
		</g>
		<g>
			<path class="st1" d="M250.5,49.5c14.5,0,27.6,5.9,37.1,15.4S303,87.5,303,102s-5.9,27.6-15.4,37.1s-22.6,15.4-37.1,15.4
				s-27.6-5.9-37.1-15.4S198,116.5,198,102s5.9-27.6,15.4-37.1C222.8,55.4,236,49.5,250.5,49.5L250.5,49.5z M282.9,69.7
				c-8.3-8.3-19.7-13.4-32.4-13.4c-12.6,0-24.1,5.1-32.4,13.4c-8.3,8.3-13.4,19.7-13.4,32.4c0,12.6,5.1,24.1,13.4,32.4
				c8.3,8.3,19.7,13.4,32.4,13.4c12.6,0,24.1-5.1,32.4-13.4c8.3-8.3,13.4-19.7,13.4-32.4S291.2,78,282.9,69.7z"/>
		</g>
	</g>
	<g>
		<g>
			<path class="st0" d="M37.8,261.5c2.4,0,4.6,0.4,6.8,1.1c-3.9,0.6-6.9,4.1-6.9,8.2c0,4.6,3.7,8.3,8.3,8.3s8.3-3.7,8.3-8.3
				c0-0.5-0.1-1.1-0.1-1.6c2.9,3.6,4.7,8.2,4.7,13.2c0,11.6-9.4,21-21,21s-21-9.4-21-21C16.8,270.9,26.2,261.5,37.8,261.5z"/>
		</g>
		<g>
			<path class="st1" d="M37.8,255.6c7.4,0,14.1,3,19,7.9s7.9,11.6,7.9,19s-3,14.1-7.9,19s-11.6,7.9-19,7.9s-14.1-3-19-7.9
				s-7.9-11.6-7.9-19s3-14.1,7.9-19C23.6,258.6,30.3,255.6,37.8,255.6L37.8,255.6z M54.3,265.9c-4.2-4.2-10.1-6.9-16.6-6.9
				s-12.3,2.6-16.6,6.9c-4.2,4.2-6.9,10.1-6.9,16.6s2.6,12.3,6.9,16.6c4.2,4.2,10.1,6.9,16.6,6.9s12.3-2.6,16.6-6.9
				c4.2-4.2,6.9-10.1,6.9-16.6C61.2,276,58.6,270.1,54.3,265.9z"/>
		</g>
	</g>
	<g>
		<g>
			<path class="st0" d="M141.8,5.9c2.4,0,4.6,0.4,6.8,1.1c-3.9,0.6-6.9,4.1-6.9,8.2c0,4.6,3.7,8.3,8.3,8.3s8.3-3.7,8.3-8.3
				c0-0.5-0.1-1.1-0.1-1.6c2.9,3.6,4.7,8.2,4.7,13.2c0,11.6-9.4,21-21,21s-21-9.4-21-21C120.8,15.3,130.2,5.9,141.8,5.9z"/>
		</g>
		<g>
			<path class="st1" d="M141.8,0c7.4,0,14.1,3,19,7.9s7.9,11.6,7.9,19s-3,14.1-7.9,19s-11.6,7.9-19,7.9s-14.1-3-19-7.9
				s-7.9-11.6-7.9-19s3-14.1,7.9-19C127.6,3,134.3,0,141.8,0L141.8,0z M158.3,10.3c-4.2-4.2-10.1-6.9-16.6-6.9s-12.3,2.6-16.6,6.9
				c-4.2,4.2-6.9,10.1-6.9,16.6s2.6,12.3,6.9,16.6c4.2,4.2,10.1,6.9,16.6,6.9s12.3-2.6,16.6-6.9c4.2-4.2,6.9-10.1,6.9-16.6
				S162.6,14.6,158.3,10.3z"/>
		</g>
	</g>
	<g>
		<g>
			<path class="st0" d="M461.2,334.4c2.4,0,4.6,0.4,6.8,1.1c-3.9,0.6-6.9,4.1-6.9,8.2c0,4.6,3.7,8.3,8.3,8.3c4.6,0,8.3-3.7,8.3-8.3
				c0-0.5-0.1-1.1-0.1-1.6c2.9,3.6,4.7,8.2,4.7,13.2c0,11.6-9.4,21-21,21s-21-9.4-21-21C440.3,343.8,449.6,334.4,461.2,334.4z"/>
		</g>
		<g>
			<path class="st1" d="M461.2,328.5c7.4,0,14.1,3,19,7.9s7.9,11.6,7.9,19s-3,14.1-7.9,19s-11.6,7.9-19,7.9s-14.1-3-19-7.9
				s-7.9-11.6-7.9-19s3-14.1,7.9-19S453.8,328.5,461.2,328.5L461.2,328.5z M477.8,338.8c-4.2-4.2-10.1-6.9-16.6-6.9
				s-12.3,2.6-16.6,6.9c-4.2,4.2-6.9,10.1-6.9,16.6s2.6,12.3,6.9,16.6c4.2,4.2,10.1,6.9,16.6,6.9s12.3-2.6,16.6-6.9
				c4.2-4.2,6.9-10.1,6.9-16.6C484.7,348.9,482,343.1,477.8,338.8z"/>
		</g>
	</g>
</g>
</svg>
