<?xml version="1.0" encoding="utf-8"?>
<!-- Generator: Adobe Illustrator 21.1.0, SVG Export Plug-In . SVG Version: 6.00 Build 0)  -->
<svg version="1.1" id="Layer_1" xmlns="http://www.w3.org/2000/svg" xmlns:xlink="http://www.w3.org/1999/xlink" x="0px" y="0px"
	 viewBox="0 0 130.8 117.8" style="enable-background:new 0 0 130.8 117.8;" xml:space="preserve">
<style type="text/css">
	.st0{fill:#E31937;}
	.st1{fill:#FFFFFF;}
	.st2{fill:#004B8D;}
	.st3{fill:#242D3C;}
</style>
<g>
	<g>
		<circle class="st0" cx="77.4" cy="44" r="20.6"/>
		<g>
			<path class="st1" d="M78.9,55.3h-3c-1.8,0-3.5-0.7-4.8-2c-1.3-1.3-2-3-2-4.8h4.6c0,0.6,0.2,1.1,0.6,1.5c0.4,0.4,1,0.6,1.5,0.6h3
				c0.6,0,1.1-0.2,1.5-0.6c0.4-0.4,0.6-1,0.6-1.5c0-0.6-0.2-1.1-0.6-1.5c-0.4-0.4-1-0.6-1.5-0.6h-3c-1.8,0-3.5-0.7-4.8-2
				c-1.3-1.3-2-3-2-4.8c0-1.8,0.7-3.5,2-4.8c1.3-1.3,3-2,4.8-2h3c1.8,0,3.5,0.7,4.8,2c1.3,1.3,2,3,2,4.8h-4.6c0-0.6-0.2-1.1-0.6-1.5
				c-0.4-0.4-1-0.6-1.5-0.6h-3c-0.6,0-1.1,0.2-1.5,0.6c-0.4,0.4-0.6,1-0.6,1.5c0,0.6,0.2,1.1,0.6,1.5c0.4,0.4,1,0.6,1.5,0.6h3
				c1.8,0,3.5,0.7,4.8,2c1.3,1.3,2,3,2,4.8c0,1.8-0.7,3.5-2,4.8C82.4,54.6,80.7,55.3,78.9,55.3z"/>
			<rect x="75.1" y="31.5" class="st1" width="4.6" height="3.6"/>
			<rect x="75.1" y="53" class="st1" width="4.6" height="3.6"/>
		</g>
	</g>
	<g>
		<g>
			<rect y="57.5" class="st2" width="26.4" height="53.7"/>
			<rect x="17.2" y="98.5" class="st1" width="4.6" height="4.6"/>
		</g>
		<g>
			<path class="st3" d="M75.1,117.8c-2,0-3.9-0.4-5.8-1.1L35,103h-8.5v-4.6h9.4l35.1,14.1c1.7,0.6,3.5,0.9,5.4,0.7
				c1.9-0.2,3.6-0.8,5.2-1.8l43.2-28.3c0.8-0.6,1.3-1.4,1.4-2.4c0.1-1-0.1-1.9-0.7-2.7l-0.1-0.1c-0.5-0.7-1.3-1.2-2.2-1.4
				c-0.9-0.2-1.8,0-2.6,0.5l-23,14.3l-2.4-3.9l23-14.3c1.7-1.1,3.8-1.5,5.8-1.1c2,0.4,3.8,1.5,5,3.1l0.1,0.1c1.3,1.8,1.9,4,1.6,6.1
				c-0.3,2.2-1.5,4.1-3.3,5.4l-0.1,0.1L84,115.2c-2.2,1.4-4.6,2.2-7.2,2.5C76.2,117.8,75.6,117.8,75.1,117.8z"/>
			<path class="st3" d="M58.9,96.6h-4.6c0-4.4,3.6-8,8-8h30.2c1.9,0,3.5-1.6,3.5-3.5c0-1.9-1.6-3.5-3.5-3.5H61.7l-11.1-7.1
				c-2.2-1.4-4.7-2.5-7.2-3.3c-2.5-0.7-5.2-1.1-7.8-1.1h-9.1v-4.6h9.1c3.1,0,6.2,0.4,9.1,1.3c3,0.9,5.8,2.2,8.4,3.8l10,6.4h29.5
				c4.4,0,8,3.6,8,8c0,4.4-3.6,8-8,8H62.4C60.5,93.2,58.9,94.7,58.9,96.6z"/>
		</g>
	</g>
	<g>
		<rect x="58" y="16.2" class="st3" width="4.6" height="6.9"/>
		<rect x="86" y="7.7" class="st3" width="4.6" height="10.6"/>
		<rect x="75.1" class="st3" width="4.6" height="15.1"/>
	</g>
</g>
</svg>
