<?xml version="1.0" encoding="utf-8"?>
<!-- Generator: Adobe Illustrator 21.1.0, SVG Export Plug-In . SVG Version: 6.00 Build 0)  -->
<svg version="1.1" id="Layer_1" xmlns="http://www.w3.org/2000/svg" xmlns:xlink="http://www.w3.org/1999/xlink" x="0px" y="0px"
	 viewBox="0 0 81.8 133.1" style="enable-background:new 0 0 81.8 133.1;" xml:space="preserve">
<style type="text/css">
	.st0{fill:#242D3C;}
	.st1{fill:#004B8D;}
	.st2{fill:#E31937;}
</style>
<g>
	<g>
		<path class="st0" d="M81.8,101.4H0v-13h81.8V101.4z M4.6,96.8h72.6V93H4.6V96.8z"/>
		<path class="st0" d="M64.2,133.1H17.7L6,96.8h69.9L64.2,133.1z M21,128.5h39.8l8.7-27.1H12.3L21,128.5z"/>
	</g>
	<rect x="38.6" y="44.9" class="st0" width="4.6" height="45.7"/>
	<path class="st1" d="M0,67.8c0,2.7,1,5.4,3.1,7.4c2,2,4.7,3.1,7.4,3.1h21.3V67.8c0-2.7-1-5.4-3.1-7.4c-2-2-4.7-3.1-7.4-3.1H0V67.8z
		"/>
	<path class="st1" d="M81.8,67.8c0,2.7-1,5.4-3.1,7.4c-2,2-4.7,3.1-7.4,3.1H50V67.8c0-2.7,1-5.4,3.1-7.4c2-2,4.7-3.1,7.4-3.1h21.3
		V67.8z"/>
	<g>
		<path class="st0" d="M81.8,47.2H0V0h81.8V47.2z M4.6,42.6h72.6V4.6H4.6V42.6z"/>
		<path class="st2" d="M66.4,7.6H15.4c0,4.3-3.5,7.9-7.9,7.9v16.3c4.3,0,7.9,3.5,7.9,7.9h50.9c0-4.3,3.5-7.9,7.9-7.9V15.4
			C69.9,15.4,66.4,11.9,66.4,7.6z M40.9,36.5c-7.1,0-12.9-5.8-12.9-12.9c0-7.1,5.8-12.9,12.9-12.9c7.1,0,12.9,5.8,12.9,12.9
			C53.8,30.8,48,36.5,40.9,36.5z"/>
		<g>
			<path class="st0" d="M41.9,32.1h-2.1c-1.4,0-2.8-0.6-3.8-1.6c-1-1.1-1.6-2.4-1.6-3.8h4.6c0,0.2,0.1,0.4,0.2,0.6
				c0.2,0.2,0.4,0.2,0.5,0.2h2.1c0.2,0,0.4-0.1,0.6-0.2c0.1-0.1,0.2-0.3,0.2-0.6c0-0.2,0-0.4-0.2-0.6c-0.2-0.2-0.4-0.2-0.6-0.2h-2.1
				c-1.4,0-2.8-0.6-3.8-1.6c-1-1-1.6-2.4-1.6-3.8c0-1.4,0.6-2.8,1.6-3.8c1.1-1,2.4-1.6,3.8-1.6h2.1c1.4,0,2.8,0.6,3.8,1.6
				c1,1,1.6,2.4,1.6,3.8h-4.6c0-0.2-0.1-0.4-0.2-0.6c-0.1-0.1-0.3-0.2-0.6-0.2h-2.1c-0.2,0-0.4,0-0.6,0.2c-0.2,0.2-0.2,0.4-0.2,0.5
				c0,0.1,0,0.4,0.2,0.6c0.2,0.2,0.4,0.2,0.6,0.2h2.1c1.4,0,2.8,0.6,3.8,1.6c1,1,1.6,2.4,1.6,3.8c0,1.4-0.6,2.8-1.6,3.8
				C44.7,31.5,43.4,32.1,41.9,32.1z"/>
			<rect x="38.6" y="14.3" class="st0" width="4.6" height="3.2"/>
			<rect x="38.6" y="29.8" class="st0" width="4.6" height="3.2"/>
		</g>
		<g>
			<rect x="58.6" y="21.3" class="st0" width="8.8" height="4.6"/>
			<rect x="14.5" y="21.3" class="st0" width="8.8" height="4.6"/>
		</g>
	</g>
</g>
</svg>
