<?xml version="1.0" encoding="utf-8"?>
<!-- Generator: Adobe Illustrator 21.1.0, SVG Export Plug-In . SVG Version: 6.00 Build 0)  -->
<svg version="1.1" id="Layer_1" xmlns="http://www.w3.org/2000/svg" xmlns:xlink="http://www.w3.org/1999/xlink" x="0px" y="0px"
	 viewBox="0 0 633.9 171.8" style="enable-background:new 0 0 633.9 171.8;" xml:space="preserve">
<style type="text/css">
	.st0{fill:#6E5F4C;}
	.st1{fill-rule:evenodd;clip-rule:evenodd;fill:#8ED8F8;}
	.st2{fill-rule:evenodd;clip-rule:evenodd;fill:#6E5F4C;}
	.st3{fill-rule:evenodd;clip-rule:evenodd;fill:#806A50;}
</style>
<g>
	<g>
		<path class="st0" d="M435.5,44.5v82.8v4.1h-4H194.9c-5.4,0-10.3-2.2-13.8-5.7c-3.5-3.5-5.7-8.4-5.7-13.8V60
			c0-5.4,2.2-10.3,5.7-13.8c3.5-3.5,8.4-5.7,13.8-5.7h236.6h4V44.5L435.5,44.5z M427.4,123.2V48.6H194.9c-3.1,0-6,1.3-8.1,3.4
			c-2.1,2.1-3.4,4.9-3.4,8.1v51.7c0,3.2,1.3,6,3.4,8.1c2.1,2.1,4.9,3.4,8.1,3.4H427.4z"/>
	</g>
	<g>
		<path class="st1" d="M366.1,120H196.3c-5.4,0-8.8-5-8.8-9.6V76.5H338c4,0,7.3-3.3,7.3-7.3l0,0c0-4-3.3-7.3-7.3-7.3H187.5v-0.4
			c0-3.8,2.6-9.6,8.8-9.6h169.8v10.8c-1.1-0.6-2.3-0.9-3.6-0.9c-4.1,0-7.4,3.3-7.4,7.4c0,4.1,3.3,7.4,7.4,7.4c1.3,0,2.5-0.3,3.6-0.9
			V120z"/>
	</g>
	<g>
		<polygon class="st2" points="171.5,63.3 171.5,108.5 162.6,108.5 162.6,90 0,90 0,81.8 162.6,81.8 162.6,63.3 		"/>
	</g>
	<g>
		<path class="st3" d="M452.7,6.1v159.6c0,3.4-2.8,6.1-6.1,6.1l0,0c-3.4,0-6.1-2.8-6.1-6.1V6.1c0-3.4,2.8-6.1,6.1-6.1l0,0
			C449.9,0,452.7,2.8,452.7,6.1z"/>
	</g>
	<g>
		<path class="st2" d="M633.9,36v99.9c0,3.4-2.7,6.1-6.1,6.1l0,0c-3.4,0-6.1-2.8-6.1-6.1V36c0-3.4,2.8-6.1,6.1-6.1l0,0
			C631.1,29.9,633.9,32.6,633.9,36z"/>
	</g>
	<g>
		<path class="st2" d="M618.4,77.9v16H456.7v-16H618.4L618.4,77.9z M433.1,93.9h-50.6v22.4c0,3.4-2.8,6.1-6.1,6.1l0,0
			c-3.4,0-6.1-2.8-6.1-6.1V55.5c0-3.3,2.8-6.1,6.1-6.1l0,0c3.4,0,6.1,2.8,6.1,6.1v22.4h50.6V93.9z"/>
	</g>
</g>
</svg>
