<?xml version="1.0" encoding="utf-8"?>
<!-- Generator: Adobe Illustrator 21.1.0, SVG Export Plug-In . SVG Version: 6.00 Build 0)  -->
<svg version="1.1" id="Layer_1" xmlns="http://www.w3.org/2000/svg" xmlns:xlink="http://www.w3.org/1999/xlink" x="0px" y="0px"
	 viewBox="0 0 213.2 214.3" style="enable-background:new 0 0 213.2 214.3;" xml:space="preserve">
<style type="text/css">
	.st0{fill:#43BFCA;}
	.st1{fill:#FFFFFF;}
</style>
<path class="st0" d="M30,214.3h153.2c16.5,0,30-13.5,30-30V30c0-16.5-13.5-30-30-30L30,0C13.5,0,0,13.5,0,30l0,154.3
	C0,200.8,13.5,214.3,30,214.3z"/>
<path class="st0" d="M213.2,184.3v-78.6c-0.5-0.6-1.1-1.2-1.8-1.7c-0.6-0.8-1.3-1.5-2.1-2.1c-0.6-0.8-1.3-1.5-2.1-2.1
	c-0.6-0.8-1.3-1.5-2.1-2.1c-0.6-0.8-1.3-1.5-2.1-2.1c-0.6-0.8-1.3-1.5-2.1-2.1c-0.6-0.8-1.3-1.5-2.1-2.1c-0.6-0.8-1.3-1.5-2.1-2.1
	c-0.6-0.8-1.3-1.5-2.1-2.1c-0.6-0.8-1.3-1.5-2.1-2.1c-0.6-0.8-1.3-1.5-2.1-2.1c-0.6-0.8-1.3-1.5-2.1-2.1c-0.6-0.8-1.3-1.5-2.1-2.1
	c-0.6-0.8-1.3-1.5-2.1-2.1c-0.6-0.8-1.3-1.5-2.1-2.1c-0.6-0.8-1.3-1.5-2.1-2.1c-0.6-0.8-1.3-1.5-2.1-2.1c-0.6-0.8-1.3-1.5-2.1-2.1
	c-0.6-0.8-1.3-1.5-2.1-2.1c-0.6-0.8-1.3-1.5-2.1-2.1c-0.6-0.8-1.3-1.5-2.1-2.1c-0.6-0.8-1.3-1.5-2.1-2.1c-0.6-0.8-1.3-1.5-2.1-2.1
	c-0.6-0.8-1.3-1.5-2.1-2.1c-0.6-0.8-1.3-1.5-2.1-2.1c-0.6-0.8-1.3-1.5-2.1-2.1c-0.6-0.8-1.3-1.5-2.1-2.1c-0.6-0.8-1.3-1.5-2.1-2.1
	c-0.6-0.8-1.3-1.5-2.1-2.1c-0.6-0.8-1.3-1.5-2.1-2.1c-0.6-0.8-1.3-1.5-2.1-2.1c-1.8-2.4-4.7-4-7.9-4c-5.4,0-9.9,4.4-9.9,9.9
	c0,3,1.3,5.6,3.4,7.5l-8.8,15.6c-4.6-2.1-9.8-3.4-15.2-3.4c-3,0-5.8,0.4-8.6,1c-0.3-0.3-0.7-0.7-1.1-1c-0.6-0.8-1.3-1.4-2.1-2.1
	c-0.6-0.8-1.3-1.4-2.1-2.1c-0.6-0.8-1.3-1.4-2.1-2.1c-0.6-0.8-1.3-1.4-2.1-2.1c-0.6-0.8-1.3-1.4-2.1-2.1c-0.6-0.8-1.3-1.4-2.1-2.1
	c-0.6-0.8-1.3-1.4-2.1-2.1c-0.6-0.8-1.3-1.4-2.1-2.1c-0.6-0.8-1.3-1.4-2.1-2.1c-0.6-0.8-1.3-1.4-2.1-2.1c-2.6-3.2-6.5-5.2-10.9-5.2
	c-7.8,0-14.1,6.3-14.1,14.1c0,4.4,2,8.4,5.2,10.9c0.6,0.8,1.3,1.4,2.1,2.1c0.6,0.8,1.3,1.4,2.1,2.1c0.6,0.8,1.3,1.4,2.1,2.1
	c0.6,0.8,1.3,1.4,2.1,2.1c0.6,0.8,1.3,1.4,2.1,2.1c0.6,0.8,1.3,1.4,2.1,2.1c0.6,0.8,1.3,1.4,2.1,2.1c0.6,0.8,1.3,1.4,2.1,2.1
	c0.6,0.8,1.3,1.4,2.1,2.1c0.1,0.1,0.2,0.2,0.2,0.3c-3,5.3-4.8,11.4-4.8,17.9c0,0.2,0,0.4,0,0.6h-6.9c-0.6-0.7-1.2-1.4-2-2
	c-0.6-0.8-1.3-1.5-2.1-2.1c-2.1-2.7-5.4-4.5-9.1-4.5c-6.4,0-11.6,5.2-11.6,11.5c0,3.7,1.8,7,4.5,9.1c0.6,0.8,1.3,1.5,2.1,2.1
	c0.6,0.8,1.3,1.5,2.1,2.1c0.6,0.8,1.3,1.5,2.1,2.1c0.6,0.8,1.3,1.5,2.1,2.1c0.6,0.8,1.3,1.5,2.1,2.1c0.6,0.8,1.3,1.5,2.1,2.1
	c0.6,0.8,1.3,1.5,2.1,2.1c0.6,0.8,1.3,1.5,2.1,2.1c0.6,0.8,1.3,1.5,2.1,2.1c0.6,0.8,1.3,1.5,2.1,2.1c0.6,0.8,1.3,1.5,2.1,2.1
	c0.6,0.8,1.3,1.5,2.1,2.1c0.6,0.8,1.3,1.5,2.1,2.1c0.6,0.8,1.3,1.5,2.1,2.1c0.3,0.4,0.7,0.9,1.1,1.3c-3.4,3-5.6,7.5-5.6,12.4
	c0,5.1,2.3,9.7,5.9,12.7c0.6,0.7,1.3,1.4,2.1,2.1c0.6,0.7,1.3,1.4,2.1,2.1c0.6,0.7,1.3,1.4,2.1,2.1c0.6,0.7,1.3,1.4,2.1,2.1
	c0.6,0.7,1.3,1.4,2.1,2.1c0.6,0.7,1.3,1.4,2.1,2.1c0.6,0.7,1.3,1.4,2.1,2.1c0.6,0.7,1.3,1.4,2.1,2.1c0.6,0.7,1.3,1.4,2.1,2.1
	c0.6,0.7,1.3,1.4,2.1,2.1c0.6,0.7,1.3,1.4,2.1,2.1c0.6,0.7,1.3,1.4,2.1,2.1c0.6,0.7,1.3,1.4,2.1,2.1c0.6,0.7,1.3,1.4,2.1,2.1
	c0.6,0.7,1.3,1.4,2.1,2.1c0.6,0.7,1.3,1.4,2.1,2.1c0.6,0.7,1.3,1.4,2.1,2.1c0.6,0.7,1.3,1.4,2.1,2.1c0.6,0.7,1.3,1.4,2.1,2.1
	c0.6,0.7,1.3,1.4,2.1,2.1c0.4,0.4,0.8,0.8,1.2,1.2h62.4C199.7,214.3,213.2,200.8,213.2,184.3z"/>
<path class="st1" d="M156.1,130.8c-3.4,0-6.5,1.3-8.8,3.4l-7.2-8c4.8-6.1,7.6-13.8,7.6-22.1c0-13.2-7.1-24.7-17.6-31l8.7-15.5
	c1,0.4,2.1,0.6,3.3,0.6c5.4,0,9.9-4.4,9.9-9.9c0-5.4-4.4-9.9-9.9-9.9c-5.4,0-9.9,4.4-9.9,9.9c0,3,1.3,5.6,3.4,7.5l-8.8,15.6
	c-4.6-2.1-9.8-3.4-15.2-3.4c-8.3,0-15.9,2.8-22,7.5l-8.1-10.3c1.9-2.4,3.1-5.5,3.1-8.8c0-7.8-6.3-14.1-14.1-14.1
	c-7.8,0-14.1,6.3-14.1,14.1c0,7.8,6.3,14.1,14.1,14.1c3.1,0,6-1,8.3-2.7l8,10.1c-6.9,6.6-11.2,15.9-11.2,26.1c0,0.2,0,0.4,0,0.6
	h-8.9c-1.3-4.9-5.8-8.5-11.1-8.5c-6.4,0-11.6,5.2-11.6,11.5c0,6.4,5.2,11.6,11.6,11.6c6.3,0,11.4-5,11.5-11.3h8.7
	c1.5,13.6,10.5,24.9,22.8,29.7l-3,6.2c-1.9-0.8-4-1.2-6.1-1.2c-9.2,0-16.6,7.4-16.6,16.6c0,9.2,7.4,16.6,16.6,16.6
	c9.2,0,16.6-7.4,16.6-16.6c0-5.8-3-10.9-7.5-13.9l3.3-6.7c3.1,0.9,6.4,1.4,9.8,1.4c10.3,0,19.7-4.4,26.2-11.3l7.2,8
	c-1.4,2.1-2.2,4.6-2.2,7.3c0,7.3,5.9,13.2,13.3,13.2c7.3,0,13.2-5.9,13.2-13.2C169.3,136.7,163.4,130.8,156.1,130.8z"/>
</svg>
