<?xml version="1.0" encoding="utf-8"?>
<!-- Generator: Adobe Illustrator 21.1.0, SVG Export Plug-In . SVG Version: 6.00 Build 0)  -->
<svg version="1.1" id="Layer_1" xmlns="http://www.w3.org/2000/svg" xmlns:xlink="http://www.w3.org/1999/xlink" x="0px" y="0px"
	 viewBox="0 0 206.4 198.5" style="enable-background:new 0 0 206.4 198.5;" xml:space="preserve">
<style type="text/css">
	.st0{fill:#B3B3B3;}
</style>
<path class="st0" d="M131.5,0l-3.6,1.1c-9.6,2.8-42,12.5-57.5,19.4c-0.9,0.4-3,1.3-5,3.1c-1.6,1.4-1.7,2.9-1.7,2.9l0.1,0.9v0
	c0,0,0.2,1.5,1.7,2.9c2,1.8,4.1,2.7,4.8,3.1c14.6,6.5,43.5,15.3,55.3,18.8l7.8,3.2l-5.3,2.1c-6.5,2.6-15.3,5.8-26.3,9.4l-0.7,0.2
	l-4.3-1.4C61.8,54.2,59.8,50.7,59,49.2c-4.3-7.6-4.4-21-4.4-21.5l0-1.2c0-0.6,0.1-12.3,3.6-20.1C23.2,23.4-0.7,59.6,0,101
	c0.8,46.5,32.3,85.3,74.8,97.4l3.4-1c9.5-2.8,41.9-12.5,57.5-19.4c0.9-0.4,3-1.3,5-3.1c1.5-1.4,1.7-2.9,1.7-3l-0.1-0.9
	c0,0-0.2-1.5-1.7-2.9c-2-1.8-4.1-2.7-4.8-3.1c-13.9-6.2-40.6-14.4-55.3-18.8l-7.8-3.2L78,141c6.6-2.7,15.4-5.8,26.3-9.3l0.7-0.2
	l4.3,1.4c34.9,11.5,36.9,15,37.7,16.6c4.3,7.6,4.3,21,4.3,21.5l0,1.2c0,0.6-0.1,12.4-3.6,20.1c35.2-17,59.2-53.2,58.4-94.8
	C205.5,50.9,174.1,12.1,131.5,0 M148.6,99l-0.3,6.6c-0.2,1.1-0.9,3.1-4.8,6.6c-5.6,4.7-11.9,6.6-12.2,6.6
	c-0.4,0.1-42.6,12.2-61,20.4c-0.9,0.4-3,1.3-5,3.1c-1.6,1.4-1.7,2.9-1.7,3l0.1,0.9c0,0,0.2,1.5,1.7,2.9c2,1.8,4.1,2.7,4.8,3.1
	c14.6,6.5,43.5,15.3,55.3,18.8l7.8,3.2l-5.2,2.1c-6.5,2.6-15.3,5.8-26.3,9.4l-0.7,0.2l-4.3-1.4c-34.9-11.5-36.9-15-37.7-16.6
	c-4.3-7.6-4.4-21-4.4-21.5l0-1.2c0-0.7,0.1-14,4.3-21.6c4-7.1,43.9-18.8,56-22.2c0.1,0,14.6-4.6,20.8-8c5.9-3.3,9-7.1,9-7.1l4.2-5.2
	L148.6,99z M147.2,75c-4,7.1-43.9,18.8-56,22.2c-0.1,0-14.6,4.6-20.8,8c-5.9,3.3-9,7.1-9,7.1l-4.2,5.3l0.3-18l0.3-6.6
	c0.2-1.1,0.9-3.1,4.8-6.6c5.6-4.7,11.9-6.5,12.2-6.6c0.4-0.1,42.5-12.2,61-20.4c0.9-0.4,3-1.3,5-3.1c1.6-1.4,1.7-2.9,1.7-3l-0.1-0.9
	c0,0-0.2-1.5-1.7-2.9c-2-1.8-4.1-2.7-4.8-3.1c-14.6-6.5-43.5-15.3-55.3-18.8l-7.8-3.2l5.2-2.1c6.5-2.6,15.3-5.8,26.4-9.4l0.7-0.2
	l4.3,1.4c34.9,11.5,36.9,15,37.7,16.6c4.3,7.6,4.4,21,4.4,21.6l0,1.2C151.5,54,151.5,67.3,147.2,75"/>
</svg>
