<?xml version="1.0" encoding="utf-8"?>
<!-- Generator: Adobe Illustrator 21.1.0, SVG Export Plug-In . SVG Version: 6.00 Build 0)  -->
<svg version="1.1" id="Layer_1" xmlns="http://www.w3.org/2000/svg" xmlns:xlink="http://www.w3.org/1999/xlink" x="0px" y="0px"
	 viewBox="0 0 411.7 411.7" style="enable-background:new 0 0 411.7 411.7;" xml:space="preserve">
<style type="text/css">
	.st0{fill:#24A9E0;}
	.st1{fill:#FDFEFE;}
	.st2{fill:#F5705D;}
	.st3{fill:#19334B;}
</style>
<circle class="st0" cx="205.9" cy="205.9" r="205.9"/>
<circle class="st1" cx="196.5" cy="247.9" r="81.7"/>
<rect x="254.7" y="166.9" transform="matrix(0.7071 0.7071 -0.7071 0.7071 216.6057 -133.4471)" class="st1" width="29.4" height="55.7"/>
<path class="st1" d="M297.7,190.5l-24.1-24.1c-1.6-1.6-1.6-4.2,0-5.8l2.9-2.9c1.6-1.6,4.2-1.6,5.8,0l24.1,24.1
	c1.6,1.6,1.6,4.2,0,5.8l-2.9,2.9C301.9,192.1,299.3,192.1,297.7,190.5z"/>
<path class="st1" d="M211.8,207.2H179c-4.2,0-7.7-3.5-7.7-7.7V77.1c0-4.2,3.5-7.7,7.7-7.7h32.8c4.2,0,7.7,3.5,7.7,7.7v122.4
	C219.5,203.8,216,207.2,211.8,207.2z"/>
<path class="st1" d="M219.6,80.9h-48.4c-3.1,0-5.6-2.5-5.6-5.6v-1.2c0-3.1,2.5-5.6,5.6-5.6h48.4c3.1,0,5.6,2.5,5.6,5.6v1.2
	C225.2,78.3,222.7,80.9,219.6,80.9z"/>
<path class="st1" d="M299.1,248.4h-28.7c-1.4,0-2.5-1.1-2.5-2.5v-4.5c0-1.4,1.1-2.5,2.5-2.5h28.7c1.4,0,2.5,1.1,2.5,2.5v4.5
	C301.7,247.2,300.5,248.4,299.1,248.4z"/>
<path class="st1" d="M297.1,244.4h-1.5c-2.5,0-4.6-2.1-4.6-4.6v-13.7c0-2.5,2.1-4.6,4.6-4.6h1.5c2.5,0,4.6,2.1,4.6,4.6v13.7
	C301.7,242.4,299.6,244.4,297.1,244.4z"/>
<g>
	<g>
		<path class="st2" d="M129.2,250.1c0,0,0,0.3,0,0.4c0,36.9,30.3,66.8,67.6,66.8c37.3,0,67.6-29.9,67.6-66.8c0-0.2,0-0.5,0-0.5
			H129.2z"/>
	</g>
</g>
<path class="st3" d="M186.3,142.5c2.8,0,5.5,0,8.3,0c1.1,0,1.9-0.4,1.9-1.6c0-1.2-0.9-1.5-1.9-1.5c-5.6,0-11.2,0-16.8,0
	c-1,0-1.8,0.4-1.7,1.7c0.1,1.1,0.8,1.5,1.8,1.5C180.8,142.5,183.5,142.5,186.3,142.5z"/>
<path class="st3" d="M186.4,130c2.7,0,5.5,0,8.2,0c1,0,2-0.2,1.9-1.5c0-1.2-0.9-1.5-1.9-1.5c-5.5,0-11,0-16.5,0
	c-1,0-1.9,0.2-1.9,1.6c0,1.3,0.9,1.4,1.9,1.4C180.9,130,183.7,130,186.4,130z"/>
<path class="st3" d="M186.4,154.8c2.7,0,5.4,0,8.2,0c1,0,2-0.1,2-1.5c0-1.3-0.9-1.5-1.9-1.5c-5.5,0-11,0-16.5,0c-1,0-2,0.2-1.9,1.6
	c0,1.3,0.9,1.4,1.9,1.4C180.9,154.8,183.7,154.8,186.4,154.8z"/>
<path class="st3" d="M181.9,148.7c1.4,0,2.8,0,4.2,0c0.9,0,1.6-0.4,1.7-1.4c0-1.2-0.7-1.6-1.7-1.6c-2.8,0-5.5,0-8.3,0
	c-1,0-1.7,0.4-1.6,1.6c0,1.1,0.7,1.4,1.6,1.4C179.2,148.7,180.6,148.7,181.9,148.7z"/>
<path class="st3" d="M181.9,136.3c1.4,0,2.8,0,4.2,0c0.9,0,1.6-0.4,1.6-1.4c0-1.1-0.7-1.6-1.6-1.6c-2.8,0-5.6,0-8.4,0
	c-1,0-1.5,0.6-1.5,1.6c0,1,0.6,1.4,1.5,1.4C179.1,136.3,180.5,136.3,181.9,136.3z"/>
<path class="st3" d="M182,161.1c1.4,0,2.8,0,4.2,0c0.9,0,1.6-0.4,1.6-1.4c0-1-0.7-1.5-1.5-1.5c-2.9,0-5.7,0-8.6,0
	c-0.9,0-1.5,0.6-1.4,1.6c0,1,0.6,1.4,1.5,1.4C179.2,161.1,180.6,161.1,182,161.1z"/>
<path class="st3" d="M186.3,105.3c2.8,0,5.5,0,8.3,0c1.1,0,1.9-0.4,1.9-1.6c0-1.2-0.9-1.5-1.9-1.5c-5.6,0-11.2,0-16.8,0
	c-1,0-1.8,0.4-1.7,1.7c0.1,1.1,0.8,1.5,1.8,1.5C180.8,105.3,183.5,105.3,186.3,105.3z"/>
<path class="st3" d="M186.4,92.8c2.7,0,5.5,0,8.2,0c1,0,2-0.2,1.9-1.5c0-1.2-0.9-1.5-1.9-1.5c-5.5,0-11,0-16.5,0
	c-1,0-1.9,0.2-1.9,1.6c0,1.3,0.9,1.4,1.9,1.4C180.9,92.8,183.7,92.8,186.4,92.8z"/>
<path class="st3" d="M186.4,117.6c2.7,0,5.4,0,8.2,0c1,0,2-0.1,2-1.5c0-1.3-0.9-1.5-1.9-1.5c-5.5,0-11,0-16.5,0c-1,0-2,0.2-1.9,1.6
	c0,1.3,0.9,1.4,1.9,1.4C180.9,117.6,183.7,117.6,186.4,117.6z"/>
<path class="st3" d="M181.9,111.4c1.4,0,2.8,0,4.2,0c0.9,0,1.6-0.4,1.7-1.4c0-1.2-0.7-1.6-1.7-1.6c-2.8,0-5.5,0-8.3,0
	c-1,0-1.7,0.4-1.6,1.6c0,1.1,0.7,1.4,1.6,1.4C179.2,111.5,180.6,111.4,181.9,111.4z"/>
<path class="st3" d="M181.9,99c1.4,0,2.8,0,4.2,0c0.9,0,1.6-0.4,1.6-1.4c0-1.1-0.7-1.6-1.6-1.6c-2.8,0-5.6,0-8.4,0
	c-1,0-1.5,0.6-1.5,1.6c0,1,0.6,1.4,1.5,1.4C179.1,99.1,180.5,99,181.9,99z"/>
<path class="st3" d="M182,123.9c1.4,0,2.8,0,4.2,0c0.9,0,1.6-0.4,1.6-1.4c0-1-0.7-1.5-1.5-1.5c-2.9,0-5.7,0-8.6,0
	c-0.9,0-1.5,0.6-1.4,1.6c0,1,0.6,1.4,1.5,1.4C179.2,123.9,180.6,123.9,182,123.9z"/>
</svg>
