<?xml version="1.0" encoding="utf-8"?>
<!-- Generator: Adobe Illustrator 21.1.0, SVG Export Plug-In . SVG Version: 6.00 Build 0)  -->
<svg version="1.1" id="Layer_1" xmlns="http://www.w3.org/2000/svg" xmlns:xlink="http://www.w3.org/1999/xlink" x="0px" y="0px"
	 viewBox="0 0 213.2 214.3" style="enable-background:new 0 0 213.2 214.3;" xml:space="preserve">
<style type="text/css">
	.st0{fill:#004B8D;}
	.st1{fill:#FFFFFF;}
</style>
<path class="st0" d="M183.2,214.3H30c-16.5,0-30-13.5-30-30V30C0,13.5,13.5,0,30,0h153.2c16.5,0,30,13.5,30,30v154.3
	C213.2,200.8,199.7,214.3,183.2,214.3z"/>
<path class="st1" d="M150.1,168h-6c14-9.3,23.3-25.3,23.3-43.4c0-24.4-16.7-44.8-39.3-50.5l9.8-18.6c1.1-2.3,0.3-5-1.9-6L112.5,38
	c-1-0.5-2.2-0.5-3.4-0.1c-1.1,0.4-2,1.3-2.6,2.4L78.8,92.9c-2.2,4.6-0.5,10,3.8,12.1l-3.8,7.8l15.6,7.6l3.8-7.8l0,0
	c4.3,2.1,9.6,0.1,11.8-4.5l9.4-17.9c17.1,2.1,30.5,16.6,30.5,34.3c0,19.2-15.6,34.7-34.7,34.7c-8.7,0-20-3.3-26.1-8.7v-4.3
	c0-2.4,1.9-4.3,4.3-4.3h21.7v-8.7H81.8H64H45.8v8.7h20.4h1.3c2.4,0,4.3,1.9,4.3,4.3v4.3V168c-9.6,0-17.4-0.9-17.4,8.7h112.9
	C167.4,167,159.7,168,150.1,168z M119.7,49.2c-1.2,0.5-2.2,1.6-2.8,2.9l-20,37.7l-7.6-3.7c0.2-0.6,0.2-1.2,0.5-1.7L108.8,49
	c0.5-1.1,1.5-2,2.6-2.4c1.1-0.4,2.3-0.4,3.4,0.1l5,2.4C119.7,49.2,119.7,49.2,119.7,49.2z"/>
</svg>
