<?xml version="1.0" encoding="utf-8"?>
<!-- Generator: Adobe Illustrator 21.1.0, SVG Export Plug-In . SVG Version: 6.00 Build 0)  -->
<svg version="1.1" id="Layer_1" xmlns="http://www.w3.org/2000/svg" xmlns:xlink="http://www.w3.org/1999/xlink" x="0px" y="0px"
	 viewBox="0 0 93.5 93.6" style="enable-background:new 0 0 93.5 93.6;" xml:space="preserve">
<style type="text/css">
	.st0{fill:#004B8D;}
	.st1{fill:#CF0A2C;}
	.st2{clip-path:url(#SVGID_2_);fill:#CF0A2C;}
	.st3{clip-path:url(#SVGID_4_);fill:#CF0A2C;}
</style>
<path class="st0" d="M66.7,35.8c-1.8,3.2-19.9,8.5-25.4,10.1c0,0-6.6,2.1-9.4,3.6c-2.7,1.5-4.1,3.2-4.1,3.2l-1.9,2.4L26,47l0.1-3
	c0.1-0.5,0.4-1.4,2.2-3c2.5-2.1,5.4-3,5.5-3c0.2-0.1,19.3-5.5,27.6-9.3c0.4-0.2,1.4-0.6,2.3-1.4c0.7-0.6,0.8-1.3,0.8-1.3v-0.4
	c0,0-0.1-0.7-0.8-1.3c-0.9-0.8-1.8-1.2-2.2-1.4C54.9,20,41.8,16,36.4,14.4L33,12.9l2.4-1c2.9-1.2,6.9-2.6,11.9-4.2l0.3-0.1l2,0.6
	c15.8,5.2,16.7,6.8,17.1,7.5c1.9,3.5,2,9.5,2,9.8V26C68.7,26.3,68.6,32.3,66.7,35.8 M67.4,46.7l-0.1,3c-0.1,0.5-0.4,1.4-2.2,3
	c-2.5,2.1-5.4,3-5.5,3C59.4,55.8,40.3,61.2,32,65c-0.4,0.2-1.4,0.6-2.3,1.4c-0.7,0.6-0.8,1.3-0.8,1.3v0.4c0,0,0.1,0.7,0.8,1.3
	c0.9,0.8,1.8,1.2,2.2,1.4c6.6,2.9,19.7,6.9,25,8.5l3.5,1.4l-2.4,1c-2.9,1.2-6.9,2.6-11.9,4.2L45.8,86l-2-0.6
	c-15.8-5.2-16.7-6.8-17.1-7.5c-1.9-3.5-2-9.5-2-9.8v-0.5c0-0.3,0-6.3,2-9.8c1.8-3.2,19.9-8.5,25.4-10.1c0,0,6.6-2.1,9.4-3.6
	c2.7-1.5,4.1-3.2,4.1-3.2l1.9-2.4L67.4,46.7z M59.6,1.8L58,2.3C53.7,3.6,39,8,31.9,11.1c-0.4,0.2-1.4,0.6-2.3,1.4
	c-0.7,0.6-0.8,1.3-0.8,1.3v0.4c0,0,0.1,0.7,0.8,1.3c0.9,0.8,1.8,1.2,2.2,1.4c6.6,2.9,19.7,6.9,25.1,8.5l3.6,1.4l-2.4,1
	c-2.9,1.2-6.9,2.6-11.9,4.2l-0.3,0.1l-2-0.6c-15.8-5.2-16.7-6.8-17.1-7.5c-1.9-3.5-2-9.5-2-9.8v-0.5c0-0.3,0-5.6,1.6-9.1
	C10.5,12.4-0.3,28.8,0,47.6c0.4,21.1,14.6,38.7,33.9,44.2l1.5-0.4c4.3-1.3,19-5.7,26.1-8.8c0.4-0.2,1.4-0.6,2.3-1.4
	c0.7-0.6,0.8-1.3,0.8-1.3v-0.4c0,0-0.1-0.7-0.8-1.3c-0.9-0.8-1.8-1.2-2.2-1.4c-6.3-2.8-18.4-6.5-25.1-8.5L33,66.7l2.4-1
	c3-1.2,7-2.6,11.9-4.2l0.3-0.1l2,0.6c15.8,5.2,16.7,6.8,17.1,7.5c1.9,3.5,2,9.5,2,9.8v0.5c0,0.3,0,5.6-1.6,9.1
	C83,81.3,93.9,64.8,93.5,46C93.2,24.9,78.9,7.3,59.6,1.8"/>
<path class="st1" d="M67.6,25.5c0,0,0-6-1.8-9.3c-0.9-1.6-8.8-4.5-16.5-7l-1.6-0.5c-4.2,1.4-8.5,2.9-11.9,4.2l1.1,0.4
	c5.6,1.7,18.5,5.6,25.1,8.5c0.3,0.1,1.4,0.6,2.5,1.6s1.1,2,1.1,2v0.5c0,0-0.1,1.1-1.1,2c-1.1,1-2.2,1.5-2.5,1.6
	C53.4,33.4,34.2,39,34.2,39s-2.8,0.8-5.1,2.8c-1.7,1.5-1.9,2.3-1.9,2.3l-0.1,3l-0.1,5c0,0,1.5-1.9,4.4-3.5s9.6-3.7,9.6-3.7
	s23-6.4,24.8-9.6c1.8-3.3,1.8-9.3,1.8-9.3L67.6,25.5z"/>
<g>
	<g>
		<defs>
			<rect id="SVGID_1_" x="25.8" width="31.9" height="31.1"/>
		</defs>
		<clipPath id="SVGID_2_">
			<use xlink:href="#SVGID_1_"  style="overflow:visible;"/>
		</clipPath>
		<path class="st2" d="M31.5,18c-0.3-0.1-1.4-0.6-2.5-1.6c-1.1-1-1.1-2-1.1-2v-0.5c0,0,0.1-1.1,1.1-2c1.1-1,2.2-1.5,2.5-1.6
			c7-3.1,21.5-7.5,26.2-8.9C53.9,0.4,50,0,46,0.1c-6.2,0.1-12.2,1.4-17.6,3.8c-0.4,0.3-0.6,0.5-0.7,0.7c-1.8,3.3-1.8,9.3-1.8,9.3
			v0.6c0,0,0,6,1.8,9.3c0.9,1.6,8.8,4.5,16.5,7l1.7,0.5c4.2-1.4,8.5-2.9,11.9-4.2l-1.1-0.4C51,24.8,38.1,20.9,31.5,18"/>
	</g>
</g>
<path class="st1" d="M25.8,68.2c0,0,0,6,1.8,9.3c0.9,1.6,8.8,4.5,16.5,7l1.7,0.5c4.2-1.4,8.5-2.9,11.9-4.2l-1.1-0.4
	c-5.6-1.7-18.5-5.6-25.1-8.5c-0.3-0.1-1.4-0.6-2.5-1.6c-1.1-1-1.1-2-1.1-2v-0.5c0,0,0.1-1.1,1.1-2c1.1-1,2.2-1.5,2.5-1.6
	c8.5-3.8,27.8-9.3,27.8-9.3s2.8-0.8,5.1-2.8c1.7-1.5,1.9-2.3,1.9-2.3l0.1-3l0.1-5.1c0,0-1.5,1.8-4.4,3.5c-2.9,1.6-9.6,3.7-9.6,3.7
	s-23,6.5-24.8,9.6c-1.8,3.3-1.8,9.3-1.8,9.3L25.8,68.2z"/>
<g>
	<g>
		<defs>
			<rect id="SVGID_3_" x="35.7" y="62.5" width="31.9" height="31.1"/>
		</defs>
		<clipPath id="SVGID_4_">
			<use xlink:href="#SVGID_3_"  style="overflow:visible;"/>
		</clipPath>
		<path class="st3" d="M61.9,75.7c0.3,0.1,1.4,0.6,2.5,1.6s1.1,2,1.1,2v0.5c0,0-0.1,1.1-1.1,2c-1.1,1-2.2,1.5-2.5,1.6
			c-7,3.1-21.5,7.5-26.2,8.8c3.7,0.9,7.7,1.3,11.7,1.3c6.2-0.1,12.2-1.4,17.6-3.8c0.4-0.3,0.6-0.5,0.7-0.7c1.8-3.3,1.8-9.3,1.8-9.3
			v-0.6c0,0,0-6-1.8-9.3c-0.9-1.6-8.8-4.5-16.5-7l-1.6-0.5c-4.2,1.4-8.5,2.9-11.9,4.2l1.1,0.4C42.4,68.8,55.4,72.8,61.9,75.7"/>
	</g>
</g>
</svg>
