<?xml version="1.0" encoding="utf-8"?>
<!-- Generator: Adobe Illustrator 21.1.0, SVG Export Plug-In . SVG Version: 6.00 Build 0)  -->
<svg version="1.1" id="Layer_1" xmlns="http://www.w3.org/2000/svg" xmlns:xlink="http://www.w3.org/1999/xlink" x="0px" y="0px"
	 viewBox="0 0 150 200.5" style="enable-background:new 0 0 150 200.5;" xml:space="preserve">
<style type="text/css">
	.st0{fill:#5d9fd1;}
</style>
<g>
	<g>
		<path class="st0" d="M75.5,57.4c-17,0-30.8-12.9-30.8-28.7C44.7,12.9,58.5,0,75.5,0s30.8,12.9,30.8,28.7
			C106.3,44.5,92.5,57.4,75.5,57.4z M75.5,5.8c-13.8,0-25,10.3-25,22.9c0,12.6,11.2,22.9,25,22.9c13.8,0,25-10.3,25-22.9
			C100.5,16.1,89.3,5.8,75.5,5.8z"/>
	</g>
	<path class="st0" d="M75,200.5c-41.4,0-75-33.6-75-75c0-41.4,33.6-75,75-75c41.4,0,75,33.6,75,75C150,166.8,116.4,200.5,75,200.5z
		 M75,59.1c-36.6,0-66.3,29.8-66.3,66.3c0,36.6,29.8,66.3,66.3,66.3c36.6,0,66.3-29.8,66.3-66.3C141.3,88.9,111.6,59.1,75,59.1z"/>
	<g>
		<path class="st0" d="M83.1,126.6c0.5,5.2-2.9,9.7-8.1,9.7h-0.5c-5.2,0-8.5-4.5-8.1-9.7c1-11.6,5.1-34.4,6.7-44.6
			c0.3-2.1,3-1.7,3.2,0.1C78.1,93.9,82,115,83.1,126.6z"/>
	</g>
	<g>
		<g>
			<rect x="72.3" y="65.2" class="st0" width="6" height="10"/>
		</g>
		<g>
			
				<rect x="32.9" y="81" transform="matrix(0.7071 -0.7071 0.7071 0.7071 -50.3503 50.5338)" class="st0" width="5.8" height="10.1"/>
		</g>
		<g>
			<rect x="14.3" y="123.2" class="st0" width="10" height="6"/>
		</g>
		<g>
			
				<rect x="30.8" y="161.7" transform="matrix(0.707 -0.7072 0.7072 0.707 -105.9094 73.5662)" class="st0" width="10.1" height="5.8"/>
		</g>
		<g>
			<rect x="72.3" y="176.2" class="st0" width="6" height="10"/>
		</g>
		<g>
			
				<rect x="111.5" y="159.5" transform="matrix(0.7071 -0.7071 0.7071 0.7071 -82.8862 129.0826)" class="st0" width="5.8" height="10.1"/>
		</g>
		<g>
			<rect x="125.3" y="123.2" class="st0" width="11" height="6"/>
		</g>
		<g>
			
				<rect x="109.3" y="83.2" transform="matrix(0.7072 -0.707 0.707 0.7072 -27.3475 106.0503)" class="st0" width="10.1" height="5.8"/>
		</g>
	</g>
	<g>
		<path class="st0" d="M23.4,59.1c-1.8-1.8-4.6-2-6.4-0.1l-8,8c-1.8,1.8-1.7,4.6,0.1,6.4c1.6,1.6,4.1,1.7,6.1,0.3l4.6,4.6l8.5-8.5
			l-4.6-4.6C25.1,63.1,25,60.7,23.4,59.1z"/>
	</g>
	<g>
		<g>
			<rect x="66.3" y="33.2" class="st0" width="19" height="25"/>
		</g>
		<g>
			<path class="st0" d="M92.3,36.8c0,0.8-0.6,1.4-1.4,1.4H60.8c-0.8,0-1.4-0.6-1.4-1.4V20.7c0-0.8,0.6-1.4,1.4-1.4h30.1
				c0.8,0,1.4,0.6,1.4,1.4V36.8z"/>
		</g>
	</g>
</g>
</svg>
